<?xml version="1.0" encoding="UTF-8" standalone="no"?>
<!-- Created with Inkscape (http://www.inkscape.org/) -->

<svg
   xmlns:dc="http://purl.org/dc/elements/1.1/"
   xmlns:cc="http://creativecommons.org/ns#"
   xmlns:rdf="http://www.w3.org/1999/02/22-rdf-syntax-ns#"
   xmlns:svg="http://www.w3.org/2000/svg"
   xmlns="http://www.w3.org/2000/svg"
   xmlns:sodipodi="http://sodipodi.sourceforge.net/DTD/sodipodi-0.dtd"
   xmlns:inkscape="http://www.inkscape.org/namespaces/inkscape"
   id="svg2"
   version="1.1"
   inkscape:version="0.91 r13725"
   width="810"
   height="36"
   viewBox="0 0 810 36"
   sodipodi:docname="tabbar-icons.svg">
  <metadata
     id="metadata8">
    <rdf:RDF>
      <cc:Work
         rdf:about="">
        <dc:format>image/svg+xml</dc:format>
        <dc:type
           rdf:resource="http://purl.org/dc/dcmitype/StillImage" />
        <dc:title />
      </cc:Work>
    </rdf:RDF>
  </metadata>
  <defs
     id="defs6">
    <inkscape:path-effect
       effect="spiro"
       id="path-effect4386-3"
       is_visible="true" />
  </defs>
  <sodipodi:namedview
     pagecolor="#ffffff"
     bordercolor="#666666"
     borderopacity="1"
     objecttolerance="10"
     gridtolerance="10"
     guidetolerance="10"
     inkscape:pageopacity="0"
     inkscape:pageshadow="2"
     inkscape:window-width="1280"
     inkscape:window-height="724"
     id="namedview4"
     showgrid="true"
     inkscape:snap-bbox="true"
     inkscape:bbox-paths="true"
     inkscape:bbox-nodes="true"
     inkscape:snap-bbox-edge-midpoints="true"
     showguides="false"
     inkscape:guide-bbox="true"
     inkscape:zoom="8.7138275"
     inkscape:cx="748.55927"
     inkscape:cy="12.091028"
     inkscape:current-layer="layer2"
     inkscape:object-paths="true"
     inkscape:snap-intersection-paths="true"
     inkscape:object-nodes="true"
     inkscape:snap-bbox-midpoints="true"
     inkscape:snap-nodes="true"
     inkscape:snap-global="true"
     inkscape:window-x="0"
     inkscape:window-y="28"
     inkscape:window-maximized="1">
    <inkscape:grid
       type="xygrid"
       id="grid4138"
       empspacing="9" />
    <sodipodi:guide
       position="18,27"
       orientation="1,0"
       id="guide4140" />
    <sodipodi:guide
       position="36,27"
       orientation="1,0"
       id="guide4144" />
    <sodipodi:guide
       position="54,27"
       orientation="1,0"
       id="guide4165" />
    <sodipodi:guide
       position="72,27"
       orientation="1,0"
       id="guide4167" />
    <sodipodi:guide
       position="90,27"
       orientation="1,0"
       id="guide4169" />
    <sodipodi:guide
       position="108,27"
       orientation="1,0"
       id="guide4171" />
    <sodipodi:guide
       position="126,27"
       orientation="1,0"
       id="guide4173" />
    <sodipodi:guide
       position="144,26"
       orientation="1,0"
       id="guide4175" />
    <sodipodi:guide
       position="162,26"
       orientation="1,0"
       id="guide4177" />
    <sodipodi:guide
       position="180,26"
       orientation="1,0"
       id="guide4179" />
    <sodipodi:guide
       position="198,26"
       orientation="1,0"
       id="guide4181" />
    <sodipodi:guide
       position="216,26"
       orientation="1,0"
       id="guide4183" />
    <sodipodi:guide
       position="234,26"
       orientation="1,0"
       id="guide4185" />
    <sodipodi:guide
       position="252,26"
       orientation="1,0"
       id="guide4187" />
    <sodipodi:guide
       position="270,27"
       orientation="1,0"
       id="guide4189" />
    <sodipodi:guide
       position="288,27"
       orientation="1,0"
       id="guide4191" />
    <sodipodi:guide
       position="306,27"
       orientation="1,0"
       id="guide4193" />
    <sodipodi:guide
       position="324,27"
       orientation="1,0"
       id="guide4195" />
    <sodipodi:guide
       position="342,27"
       orientation="1,0"
       id="guide4197" />
    <sodipodi:guide
       position="360,27"
       orientation="1,0"
       id="guide4199" />
    <sodipodi:guide
       position="378,27"
       orientation="1,0"
       id="guide4201" />
    <sodipodi:guide
       position="396,27"
       orientation="1,0"
       id="guide4203" />
    <sodipodi:guide
       position="414,27"
       orientation="1,0"
       id="guide4205" />
    <sodipodi:guide
       position="432,27"
       orientation="1,0"
       id="guide4207" />
    <sodipodi:guide
       position="450,27"
       orientation="1,0"
       id="guide4209" />
    <sodipodi:guide
       position="468,27"
       orientation="1,0"
       id="guide4211" />
    <sodipodi:guide
       position="486,27"
       orientation="1,0"
       id="guide4213" />
    <sodipodi:guide
       position="504,27"
       orientation="1,0"
       id="guide4215" />
    <sodipodi:guide
       position="522,27"
       orientation="1,0"
       id="guide4217" />
    <sodipodi:guide
       position="540,27"
       orientation="1,0"
       id="guide4219" />
    <sodipodi:guide
       position="558,27"
       orientation="1,0"
       id="guide4221" />
    <sodipodi:guide
       position="576,27"
       orientation="1,0"
       id="guide4223" />
    <sodipodi:guide
       position="594,27"
       orientation="1,0"
       id="guide4225" />
    <sodipodi:guide
       position="612,27"
       orientation="1,0"
       id="guide4227" />
    <sodipodi:guide
       position="630,27"
       orientation="1,0"
       id="guide4229" />
    <sodipodi:guide
       position="648,27"
       orientation="1,0"
       id="guide4231" />
    <sodipodi:guide
       position="666,27"
       orientation="1,0"
       id="guide4233" />
    <sodipodi:guide
       position="684,27"
       orientation="1,0"
       id="guide4235" />
    <sodipodi:guide
       position="702,27"
       orientation="1,0"
       id="guide4237" />
    <sodipodi:guide
       position="720,27"
       orientation="1,0"
       id="guide4239" />
    <sodipodi:guide
       position="738,27"
       orientation="1,0"
       id="guide4241" />
    <sodipodi:guide
       position="756,27"
       orientation="1,0"
       id="guide4243" />
    <sodipodi:guide
       position="0,18"
       orientation="0,1"
       id="guide4245" />
    <sodipodi:guide
       position="59.720667,21.020803"
       orientation="0,1"
       id="guide4691" />
    <sodipodi:guide
       position="63,33"
       orientation="0,1"
       id="guide4693" />
    <sodipodi:guide
       position="450,18"
       orientation="1,0"
       id="guide4716" />
  </sodipodi:namedview>
  <g
     inkscape:groupmode="layer"
     id="layer2"
     inkscape:label="Layer 2"
     style="display:inline">
    <path
       style="opacity:1;fill:#d3dae3;fill-opacity:1;stroke:none;stroke-width:0.69999999;stroke-linecap:round;stroke-linejoin:miter;stroke-miterlimit:4;stroke-dasharray:none;stroke-dashoffset:0;stroke-opacity:1"
       d="m 309,2 c -0.554,0 -1,0.446 -1,1 l 0,12 c 0,0.554 0.446,1 1,1 l 12,0 c 0.554,0 1,-0.446 1,-1 l 0,-12 c 0,-0.554 -0.446,-1 -1,-1 l -12,0 z m 3,1 6,0 c 1.108,0 2,0.892 2,2 l 0,6 c 0,1.108 -0.892,2 -2,2 l -6,0 c -1.108,0 -2,-0.892 -2,-2 l 0,-6 c 0,-1.108 0.892,-2 2,-2 z"
       id="rect4570"
       inkscape:connector-curvature="0" />
    <g
       style="font-style:normal;font-weight:bold;font-size:15px;line-height:125%;font-family:Sans;-inkscape-font-specification:'Sans Bold';letter-spacing:0px;word-spacing:0px;fill:#d3dae3;fill-opacity:1;stroke:none;stroke-width:1px;stroke-linecap:butt;stroke-linejoin:miter;stroke-opacity:1"
       id="text4575"
       transform="matrix(0.5721975,0,0,0.58799884,135.90225,10.439994)">
      <path
         d="m 311.30469,-0.89477539 -0.43213,-1.11328121 -0.0659,0 q -0.2417,0.3295898 -0.4834,0.571289 -0.2417,0.234375 -0.52734,0.3881836 -0.28565,0.15380861 -0.64453,0.2270508 -0.35157,0.0732422 -0.82032,0.0732422 -0.49804,0 -0.92285,-0.15380859 -0.4248,-0.16113281 -0.73974,-0.47607421 -0.30762,-0.3222657 -0.4834,-0.8056641 -0.17578,-0.4907226 -0.17578,-1.1572266 0,-1.3037109 0.83496,-1.9189453 0.83496,-0.6225586 2.49756,-0.6884765 l 1.30371,-0.043945 0,-0.6152344 q 0,-0.5053711 -0.29297,-0.7470703 -0.29297,-0.2416992 -0.82031,-0.2416992 -0.52735,0 -1.03272,0.1538085 -0.49805,0.1538086 -1.00342,0.4101563 L 306.771,-8.5119629 q 0.61523,-0.3442383 1.3623,-0.5419922 0.74707,-0.1977539 1.56738,-0.1977539 1.53077,0 2.34375,0.7177735 0.82032,0.7177734 0.82032,2.1826171 l 0,5.45654301 -1.56006,0 z m -0.65918,-3.79394531 -0.73975,0.029297 q -0.44678,0.014648 -0.75439,0.1171875 -0.30762,0.102539 -0.49805,0.2783203 -0.18311,0.168457 -0.271,0.4101562 -0.0806,0.234375 -0.0806,0.5273438 0,0.5126953 0.24902,0.7324219 0.24902,0.2124023 0.65186,0.2124023 0.30761,0 0.57129,-0.1025391 0.26367,-0.1098632 0.4541,-0.3149414 0.19775,-0.2124023 0.30761,-0.5126953 0.10987,-0.3076172 0.10987,-0.703125 l 0,-0.6738281 z"
         id="path4580"
         inkscape:connector-curvature="0"
         style="fill:#d3dae3;fill-opacity:1" />
      <path
         d="m 316.47486,-7.6477051 c -0.3955,0 -0.72509,0.1391602 -0.98877,0.4174805 -0.25879,0.2783203 -0.40772,0.715332 -0.44678,1.3110351 l 2.84913,0 c -0.005,-0.2490234 -0.0364,-0.4785156 -0.0952,-0.6884765 -0.0586,-0.2099609 -0.1465,-0.390625 -0.26367,-0.5419922 -0.1172,-0.15625 -0.26368,-0.2783203 -0.43946,-0.3662109 -0.17578,-0.087891 -0.38086,-0.131836 -0.61523,-0.131836 z m 0.28564,6.89941408 c -0.58593,0 -1.12548,-0.0854492 -1.61865,-0.25634768 -0.49316,-0.1708984 -0.91797,-0.427246 -1.27441,-0.7690429 -0.35644,-0.3466797 -0.63476,-0.7812501 -0.83497,-1.303711 -0.1953,-0.5273437 -0.29296,-1.1450195 -0.29296,-1.8530273 0,-0.7177735 0.0903,-1.3452149 0.27099,-1.8823242 0.18067,-0.5371094 0.43214,-0.9838868 0.7544,-1.3403321 0.32715,-0.3613281 0.71778,-0.6323242 1.17187,-0.8129883 0.45899,-0.180664 0.9668,-0.270996 1.52344,-0.270996 0.542,0 1.03028,0.083008 1.46484,0.2490234 0.43946,0.1611328 0.81055,0.4003906 1.11328,0.7177734 0.30762,0.3173828 0.542,0.7080078 0.70313,1.171875 0.16602,0.4589844 0.24902,0.9863282 0.24902,1.5820313 l 0,1.0839844 -4.99511,0 c 0.01,0.3125 0.0586,0.5957031 0.14648,0.8496093 0.0928,0.2490235 0.21973,0.4614258 0.38086,0.6372071 0.16602,0.1708984 0.36377,0.3027343 0.59326,0.3955078 0.23438,0.092773 0.50049,0.1391601 0.79834,0.1391601 0.24903,0 0.48341,-0.012207 0.70313,-0.036621 0.22461,-0.029297 0.44189,-0.070801 0.65185,-0.1245117 0.20996,-0.053711 0.41748,-0.1196286 0.62256,-0.1977539 0.20509,-0.083008 0.41504,-0.1782226 0.62988,-0.2856445 l 0,1.7285156 c -0.19531,0.1025391 -0.39306,0.1904297 -0.59326,0.2636719 -0.19531,0.0683594 -0.40283,0.1269531 -0.62256,0.17578123 -0.21972,0.0488281 -0.45654,0.0830078 -0.71045,0.10253906 -0.2539,0.0244141 -0.53222,0.0366211 -0.83496,0.036621 z"
         id="path4582"
         inkscape:connector-curvature="0"
         sodipodi:nodetypes="scccccsssssccscccscccscccccscsccccscs"
         style="fill:#d3dae3;fill-opacity:1" />
    </g>
    <path
       inkscape:connector-curvature="0"
       style="opacity:1;fill:#d3dae3;fill-opacity:1;stroke:none;stroke-width:1;stroke-linecap:round;stroke-linejoin:miter;stroke-miterlimit:4;stroke-dasharray:none;stroke-dashoffset:0;stroke-opacity:1"
       d="M 326,2.9999996 326,15 l 14,0 0,-12.0000004 -14,0 z m 6,1 1,0 0,1 -1,0 0,-1 z m 2,0 1,0 0,1 -1,0 0,-1 z m 2,0 2,0 0,1 -2,0 0,-1 z m -8,2 10,0 L 338,13 l -10,0 0,-7.0000004 z"
       id="rect4294" />
    <g
       id="g4352"
       style="fill:#d3dae3;fill-opacity:1">
      <path
         id="rect4294-9"
         d="m 668,3 0,12 14,0 0,-12 -14,0 z m 6,1 1,0 0,1 -1,0 0,-1 z m 2,0 1,0 0,1 -1,0 0,-1 z m 2,0 2,0 0,1 -2,0 0,-1 z m -8,2 10,0 0,7 -10,0 0,-7 z"
         style="opacity:1;fill:#d3dae3;fill-opacity:1;stroke:none;stroke-width:1;stroke-linecap:round;stroke-linejoin:miter;stroke-miterlimit:4;stroke-dasharray:none;stroke-dashoffset:0;stroke-opacity:1"
         inkscape:connector-curvature="0" />
      <rect
         ry="1.38778e-16"
         rx="1.38778e-16"
         y="6"
         x="676"
         height="7"
         width="2"
         id="rect4350"
         style="opacity:1;fill:#d3dae3;fill-opacity:1;stroke:none;stroke-width:1;stroke-linecap:round;stroke-linejoin:miter;stroke-miterlimit:4;stroke-dasharray:none;stroke-dashoffset:0;stroke-opacity:1" />
    </g>
    <g
       id="g4396"
       style="fill:#d3dae3;fill-opacity:1">
      <rect
         ry="1.38778e-16"
         rx="1.38778e-16"
         y="4"
         x="578"
         height="10"
         width="10"
         id="rect4392"
         style="opacity:1;fill:#d3dae3;fill-opacity:1;stroke:none;stroke-width:0.69999999;stroke-linecap:round;stroke-linejoin:miter;stroke-miterlimit:4;stroke-dasharray:none;stroke-dashoffset:0;stroke-opacity:1" />
      <path
         sodipodi:nodetypes="ccccc"
         inkscape:connector-curvature="0"
         id="path4394"
         d="m 588,7 4,-2 0,8 -4,-2 z"
         style="fill:#d3dae3;fill-opacity:1;fill-rule:evenodd;stroke:none;stroke-width:1px;stroke-linecap:butt;stroke-linejoin:miter;stroke-opacity:1" />
    </g>
    <g
       id="g4463"
       style="fill:#d3dae3;fill-opacity:1">
      <path
         inkscape:connector-curvature="0"
         id="path4443"
         d="m 598,5 3,0 3,4 -3,4 -3,0 3,-4 z"
         style="fill:#d3dae3;fill-opacity:1;fill-rule:evenodd;stroke:none;stroke-width:1px;stroke-linecap:butt;stroke-linejoin:miter;stroke-opacity:1" />
      <path
         inkscape:connector-curvature="0"
         id="path4443-5"
         d="m 603,5 3,0 3,4 -3,4 -3,0 3,-4 z"
         style="fill:#d3dae3;fill-opacity:1;fill-rule:evenodd;stroke:none;stroke-width:1px;stroke-linecap:butt;stroke-linejoin:miter;stroke-opacity:1" />
    </g>
    <g
       id="g4377"
       style="fill:#d3dae3;fill-opacity:1">
      <path
         sodipodi:nodetypes="cccccc"
         inkscape:connector-curvature="0"
         id="path4766"
         d="m 435,15 2,0 6,-6 -2,-2 -6,6 z"
         style="fill:#d3dae3;fill-opacity:1;fill-rule:evenodd;stroke:none;stroke-width:1px;stroke-linecap:butt;stroke-linejoin:miter;stroke-opacity:1" />
      <path
         inkscape:connector-curvature="0"
         id="path4768"
         d="m 444,2 a 4,4 0 0 0 -4,4 4,4 0 0 0 4,4 4,4 0 0 0 4,-4 4,4 0 0 0 -0.33398,-1.5859375 c -0.0612,0.086178 -0.1291,0.1701155 -0.20704,0.2480469 l -1.84765,1.8476562 c -0.66351,0.6635048 -1.67021,0.7243245 -2.25781,0.1367188 -0.58761,-0.5876058 -0.52679,-1.5943077 0.13671,-2.2578125 l 1.84766,-1.8476563 c 0.0789,-0.078897 0.16267,-0.1491534 0.25,-0.2109375 A 4,4 0 0 0 444,2 Z"
         style="opacity:1;fill:#d3dae3;fill-opacity:1;stroke:none;stroke-width:0.69999999;stroke-linecap:round;stroke-linejoin:miter;stroke-miterlimit:4;stroke-dasharray:none;stroke-dashoffset:0;stroke-opacity:1" />
    </g>
    <path
       inkscape:connector-curvature="0"
       style="opacity:1;fill:#d3dae3;fill-opacity:1;stroke:none;stroke-width:1;stroke-linecap:round;stroke-linejoin:miter;stroke-miterlimit:4;stroke-dasharray:none;stroke-dashoffset:0;stroke-opacity:1"
       d="m 746.98828,2.4003902 c -0.25562,0 -0.51116,0.0971 -0.70703,0.2929688 l -2.30469,2.3066406 -1.98828,0 c -0.554,0 -1,0.446 -1,1 l 0,7.9785164 c 0,0.554 0.446,1 1,1 l 10,0 c 0.554,0 1,-0.446 1,-1 l 0,-7.9785164 c 0,-0.554 -0.446,-1 -1,-1 l -1.98828,0 -2.30469,-2.3066406 C 747.49944,2.4974904 747.2439,2.4003902 746.98828,2.4003902 Z m 1.55078,3.5996094 a 2.4615383,2.4615385 0 0 1 0.97656,0.203125 c -0.0537,0.038021 -0.10569,0.080354 -0.15429,0.1289062 l -1.13672,1.1386719 c -0.40828,0.4083106 -0.4456,1.0270683 -0.084,1.3886719 0.3616,0.3616032 0.98037,0.3243263 1.38868,-0.083984 l 1.13867,-1.1367187 c 0.0479,-0.047958 0.0892,-0.099311 0.12695,-0.1523438 A 2.4615383,2.4615385 0 0 1 751,8.4609371 2.4615383,2.4615385 0 0 1 748.53906,10.923828 2.4615383,2.4615385 0 0 1 747.5293,10.703125 L 744.23047,14 743,14 l 0,-1.230469 3.29688,-3.2988283 a 2.4615383,2.4615385 0 0 1 -0.22071,-1.0097656 2.4615383,2.4615385 0 0 1 2.46289,-2.4609375 z"
       id="rect4744-3" />
    <path
       inkscape:connector-curvature="0"
       style="opacity:1;fill:#d3dae3;fill-opacity:1;stroke:none;stroke-width:0.69999999;stroke-linecap:round;stroke-linejoin:miter;stroke-miterlimit:4;stroke-dasharray:none;stroke-dashoffset:0;stroke-opacity:1"
       d="m 693,1.9999996 a 7,7 0 0 0 -7,7 A 7,7 0 0 0 693,16 a 7,7 0 0 0 7,-7.0000004 7,7 0 0 0 -7,-7 z m 0,0.671875 0,2.328125 a 4,4 0 0 1 4,4 A 4,4 0 0 1 693,13 4,4 0 0 1 689.13086,9.9999996 l 1.04492,0 A 3,3 0 0 0 693,12 a 3,3 0 0 0 3,-3.0000004 3,3 0 0 0 -3,-3 l 0,2.328125 -1.75586,-1.7558594 -0.71289,-0.7128906 -0.36133,-0.359375 L 693,2.6718746 Z"
       id="path4408" />
    <path
       inkscape:connector-curvature="0"
       style="opacity:1;fill:#da4453;fill-opacity:1;stroke:none;stroke-width:0.69999999;stroke-linecap:round;stroke-linejoin:miter;stroke-miterlimit:4;stroke-dasharray:none;stroke-dashoffset:0;stroke-opacity:1"
       d="m 693,20 a 7,7 0 0 0 -7,7 7,7 0 0 0 7,7 7,7 0 0 0 7,-7 7,7 0 0 0 -7,-7 z m 0,0.671875 L 693,23 a 4,4 0 0 1 4,4 4,4 0 0 1 -4,4 4,4 0 0 1 -3.86914,-3 l 1.04492,0 A 3,3 0 0 0 693,30 a 3,3 0 0 0 3,-3 3,3 0 0 0 -3,-3 l 0,2.328125 -1.75586,-1.755859 -0.71289,-0.712891 L 690.16992,23.5 693,20.671875 Z"
       id="path4408-6" />
    <g
       id="g4497"
       style="fill:#d3dae3;fill-opacity:1">
      <path
         sodipodi:nodetypes="cccccccccccccccccccccsssssss"
         inkscape:connector-curvature="0"
         id="path4490"
         d="m 709.6,3 -1.6,2 -0.3,2 -2.7,3 0,5 1,0 2,-2 1,0 1,1 1,0 1,0 1,-1 1,0 2,2 1,0 0,-5 L 714.3,7 714,5 712.4,3 711,2 Z m 0.9,3 1,0 c 0.277,0 0.5,0.223 0.5,0.5 0,0.277 -0.223,0.5 -0.5,0.5 l -1,0 C 710.223,7 710,6.777 710,6.5 710,6.223 710.223,6 710.5,6 Z"
         style="fill:#d3dae3;fill-opacity:1;fill-rule:evenodd;stroke:none;stroke-width:1px;stroke-linecap:butt;stroke-linejoin:miter;stroke-opacity:1" />
      <rect
         ry="0.5"
         rx="0.5"
         y="14.5"
         x="710"
         height="1"
         width="2"
         id="rect4492"
         style="opacity:1;fill:#d3dae3;fill-opacity:1;stroke:none;stroke-width:0.69999999;stroke-linecap:round;stroke-linejoin:miter;stroke-miterlimit:4;stroke-dasharray:none;stroke-dashoffset:0;stroke-opacity:1" />
    </g>
    <g
       id="g4668"
       style="fill:#d3dae3;fill-opacity:1">
      <path
         inkscape:connector-curvature="0"
         id="path4584"
         d="m 729,2 a 7,7 0 0 0 -7,7 7,7 0 0 0 7,7 7,7 0 0 0 7,-7 7,7 0 0 0 -7,-7 z m 0,1 a 6,6 0 0 1 6,6 6,6 0 0 1 -6,6 6,6 0 0 1 -6,-6 6,6 0 0 1 6,-6 z"
         style="opacity:1;fill:#d3dae3;fill-opacity:1;stroke:none;stroke-width:0.69999999;stroke-linecap:round;stroke-linejoin:miter;stroke-miterlimit:4;stroke-dasharray:none;stroke-dashoffset:0;stroke-opacity:1" />
      <rect
         ry="1"
         rx="1"
         y="3"
         x="727"
         height="12"
         width="1"
         id="rect4589"
         style="opacity:1;fill:#d3dae3;fill-opacity:1;stroke:none;stroke-width:0.69999999;stroke-linecap:round;stroke-linejoin:miter;stroke-miterlimit:4;stroke-dasharray:none;stroke-dashoffset:0;stroke-opacity:1" />
      <rect
         ry="1.3877788e-16"
         rx="1.3877788e-16"
         y="3"
         x="730"
         height="12"
         width="1"
         id="rect4589-8"
         style="opacity:1;fill:#d3dae3;fill-opacity:1;stroke:none;stroke-width:0.69999999;stroke-linecap:round;stroke-linejoin:miter;stroke-miterlimit:4;stroke-dasharray:none;stroke-dashoffset:0;stroke-opacity:1" />
      <rect
         ry="1.3877788e-16"
         rx="1.3877788e-16"
         y="4.2568936"
         x="724"
         height="9.5251265"
         width="1"
         id="rect4589-1"
         style="opacity:1;fill:#d3dae3;fill-opacity:1;stroke:none;stroke-width:0.69999999;stroke-linecap:round;stroke-linejoin:miter;stroke-miterlimit:4;stroke-dasharray:none;stroke-dashoffset:0;stroke-opacity:1" />
      <rect
         ry="1.3877788e-16"
         rx="1.3877788e-16"
         y="4.2998734"
         x="733"
         height="9.5251265"
         width="1"
         id="rect4589-1-4"
         style="opacity:1;fill:#d3dae3;fill-opacity:1;stroke:none;stroke-width:0.69999999;stroke-linecap:round;stroke-linejoin:miter;stroke-miterlimit:4;stroke-dasharray:none;stroke-dashoffset:0;stroke-opacity:1" />
      <rect
         transform="matrix(0,1,-1,0,0,0)"
         ry="1.3877788e-16"
         rx="1.3877788e-16"
         y="-733.76257"
         x="4"
         height="9.5251265"
         width="1"
         id="rect4589-1-8"
         style="opacity:1;fill:#d3dae3;fill-opacity:1;stroke:none;stroke-width:0.69999999;stroke-linecap:round;stroke-linejoin:miter;stroke-miterlimit:4;stroke-dasharray:none;stroke-dashoffset:0;stroke-opacity:1" />
      <rect
         transform="matrix(0,1,-1,0,0,0)"
         ry="1.3877788e-16"
         rx="1.3877788e-16"
         y="-733.76257"
         x="13"
         height="9.5251265"
         width="1"
         id="rect4589-1-2"
         style="opacity:1;fill:#d3dae3;fill-opacity:1;stroke:none;stroke-width:0.69999999;stroke-linecap:round;stroke-linejoin:miter;stroke-miterlimit:4;stroke-dasharray:none;stroke-dashoffset:0;stroke-opacity:1" />
      <rect
         transform="matrix(0,1,-1,0,0,0)"
         ry="1.3877788e-16"
         rx="1.3877788e-16"
         y="-735"
         x="10"
         height="11.99998"
         width="1"
         id="rect4589-1-9"
         style="opacity:1;fill:#d3dae3;fill-opacity:1;stroke:none;stroke-width:0.69999999;stroke-linecap:round;stroke-linejoin:miter;stroke-miterlimit:4;stroke-dasharray:none;stroke-dashoffset:0;stroke-opacity:1" />
      <rect
         transform="matrix(0,1,-1,0,0,0)"
         ry="1.3877788e-16"
         rx="1.3877788e-16"
         y="-735"
         x="7"
         height="11.99998"
         width="1"
         id="rect4589-1-22"
         style="opacity:1;fill:#d3dae3;fill-opacity:1;stroke:none;stroke-width:0.69999999;stroke-linecap:round;stroke-linejoin:miter;stroke-miterlimit:4;stroke-dasharray:none;stroke-dashoffset:0;stroke-opacity:1" />
    </g>
    <rect
       style="opacity:1;fill:#d3dae3;fill-opacity:1;stroke:none;stroke-width:0.69999999;stroke-linecap:round;stroke-linejoin:miter;stroke-miterlimit:4;stroke-dasharray:none;stroke-dashoffset:0;stroke-opacity:1"
       id="rect4979"
       width="10"
       height="10"
       x="200.00009"
       y="6"
       rx="1"
       ry="1" />
    <ellipse
       style="opacity:1;fill:#d3dae3;fill-opacity:1;stroke:none;stroke-width:0.69999999;stroke-linecap:round;stroke-linejoin:miter;stroke-miterlimit:4;stroke-dasharray:none;stroke-dashoffset:0;stroke-opacity:1"
       id="path4981"
       cx="205.00009"
       cy="3.625"
       rx="2.0000014"
       ry="1.625" />
    <rect
       style="opacity:1;fill:#d3dae3;fill-opacity:1;stroke:none;stroke-width:0.69999999;stroke-linecap:round;stroke-linejoin:miter;stroke-miterlimit:4;stroke-dasharray:none;stroke-dashoffset:0;stroke-opacity:1"
       id="rect4983"
       width="2"
       height="3.6273403"
       x="204.00009"
       y="4"
       rx="1"
       ry="1" />
    <g
       id="g5003"
       transform="matrix(0,1,-1.0333195,0,213.64476,-194)"
       style="fill:#d3dae3;fill-opacity:1">
      <ellipse
         ry="1.5"
         rx="2.0000014"
         cy="1.1550797"
         cx="205"
         id="path4981-3"
         style="opacity:1;fill:#d3dae3;fill-opacity:1;stroke:none;stroke-width:0.69999999;stroke-linecap:round;stroke-linejoin:miter;stroke-miterlimit:4;stroke-dasharray:none;stroke-dashoffset:0;stroke-opacity:1" />
      <rect
         ry="1"
         rx="0.9677549"
         y="1.6550797"
         x="204"
         height="3.6273403"
         width="2"
         id="rect4983-7"
         style="opacity:1;fill:#d3dae3;fill-opacity:1;stroke:none;stroke-width:0.69999999;stroke-linecap:round;stroke-linejoin:miter;stroke-miterlimit:4;stroke-dasharray:none;stroke-dashoffset:0;stroke-opacity:1" />
    </g>
    <path
       inkscape:connector-curvature="0"
       style="fill:#d3dae3;fill-opacity:1;fill-rule:evenodd;stroke:none;stroke-width:1px;stroke-linecap:butt;stroke-linejoin:miter;stroke-opacity:1"
       d="M 361,3.9999998 C 360.60225,9.3474948 361.65771,11.475301 364,13 l 3,0 c 1.34792,-1.038563 0.98353,-1.5625 2,-1.5625 1.0167,0.0022 0.65208,0.523937 2,1.5625 l 3,0 c 2.34229,-1.524699 3.39775,-3.6525052 3,-9.0000002 0,0 -0.58016,0.801126 -1,1 l -2,0 c -0.39775,-0.839689 -2,-1 -2,-1 -2.03293,1.016466 -1.02772,1.779029 -2,2 l -1,0 -1,0 c -0.26517,0.06629 0.0329,-1.005631 -2,-2 0,0 -1.60225,0.160311 -2,1 l -2,0 c -0.41984,-0.198874 -1,-1 -1,-1 z m 5,4 a 2,1 0 0 1 2,1 A 2,1 0 0 1 366,10 a 2,1 0 0 1 -2,-1.0000002 2,1 0 0 1 2,-1 z m 6,0 a 2,1 0 0 1 2,1 A 2,1 0 0 1 372,10 a 2,1 0 0 1 -2,-1.0000002 2,1 0 0 1 2,-1 z"
       id="path5021" />
    <g
       id="g5070"
       style="fill:#d3dae3;fill-opacity:1">
      <circle
         r="7"
         cy="9"
         cx="9"
         id="path5059"
         style="opacity:1;fill:#d3dae3;fill-opacity:1;stroke:none;stroke-width:0.69999999;stroke-linecap:round;stroke-linejoin:miter;stroke-miterlimit:4;stroke-dasharray:none;stroke-dashoffset:0;stroke-opacity:1" />
      <path
         inkscape:connector-curvature="0"
         id="rect5061"
         d="m 5,5 0,8 8,0 0,-8 -8,0 z m 1,1 6,0 0,6 -6,0 0,-6 z"
         style="opacity:1;fill:#ffffff;fill-opacity:1;stroke:none;stroke-width:0.69999999;stroke-linecap:round;stroke-linejoin:miter;stroke-miterlimit:4;stroke-dasharray:none;stroke-dashoffset:0;stroke-opacity:1" />
      <path
         inkscape:connector-curvature="0"
         id="path5066"
         d="m 6,6 6,6"
         style="fill:#d3dae3;fill-opacity:1;fill-rule:evenodd;stroke:#ffffff;stroke-width:1px;stroke-linecap:butt;stroke-linejoin:miter;stroke-opacity:1" />
      <path
         inkscape:connector-curvature="0"
         id="path5068"
         d="M 12,6 6,12"
         style="fill:#d3dae3;fill-opacity:1;fill-rule:evenodd;stroke:#ffffff;stroke-width:1px;stroke-linecap:butt;stroke-linejoin:miter;stroke-opacity:1" />
    </g>
    <path
       inkscape:connector-curvature="0"
       style="display:inline;opacity:1;fill:#d3dae3;fill-opacity:1;stroke:none;stroke-width:0.5;stroke-linecap:butt;stroke-linejoin:round;stroke-miterlimit:4;stroke-dasharray:none;stroke-dashoffset:0;stroke-opacity:0.26666667"
       d="m 779,3 c -0.554,0 -1,0.446 -1,1 l 0,7 -1,0 c -0.554,0 -1,0.446 -1,1 l 0,2 c 0,0.554 0.446,1 1,1 l 12,0 c 0.554,0 1,-0.446 1,-1 l 0,-2 c 0,-0.554 -0.446,-1 -1,-1 l -1,0 0,-7 c 0,-0.554 -0.446,-1 -1,-1 l -8,0 z"
       id="rect4403" />
    <path
       style="display:inline;opacity:1;fill:#d3dae3;fill-opacity:1;stroke:none;stroke-width:1;stroke-linecap:butt;stroke-linejoin:round;stroke-miterlimit:4;stroke-dasharray:none;stroke-dashoffset:0;stroke-opacity:1"
       d="m 794,2 0,13 12,0 0,-13 z m 1,1 10,0 0,11 -10,0 z"
       id="rect4404"
       inkscape:connector-curvature="0"
       sodipodi:nodetypes="cccccccccc" />
    <path
       inkscape:connector-curvature="0"
       style="display:inline;opacity:1;fill:#d3dae3;fill-opacity:1;stroke:none;stroke-width:1;stroke-linecap:butt;stroke-linejoin:round;stroke-miterlimit:4;stroke-dasharray:none;stroke-dashoffset:0;stroke-opacity:1"
       d="m 796,4 0,4 8,0 0,-4 -8,0 z m 3,2 2,0 0,1 -2,0 0,-1 z"
       id="rect4409" />
    <path
       inkscape:connector-curvature="0"
       style="display:inline;opacity:1;fill:#d3dae3;fill-opacity:1;stroke:none;stroke-width:1;stroke-linecap:butt;stroke-linejoin:round;stroke-miterlimit:4;stroke-dasharray:none;stroke-dashoffset:0;stroke-opacity:1"
       d="m 796,9 0,4 8,0 0,-4 -8,0 z m 3,2 2,0 0,1 -2,0 0,-1 z"
       id="rect4411" />
    <path
       inkscape:connector-curvature="0"
       style="fill:currentColor;fill-opacity:1;stroke:none"
       d="m 470,3.75 0,1.75 14,0 0,-1.75 -14,0 m 0,4.375 0,1.75 14,0 0,-1.75 -14,0 m 0,4.375 0,1.75 14,0 0,-1.75 -14,0"
       class="ColorScheme-Text"
       id="path6-3" />
    <path
       inkscape:connector-curvature="0"
       style="fill:#f2f2f2;fill-opacity:0;stroke:none"
       d="m 469,4 0,2 16,0 0,-2 -16,0 m 0,5 0,2 16,0 0,-2 -16,0 m 0,5 0,2 16,0 0,-2 -16,0"
       class="ColorScheme-Text"
       id="path6-6" />
    <path
       inkscape:connector-curvature="0"
       style="fill:currentColor;fill-opacity:1;stroke:none"
       d="m 171,2 c -3.878,0 -7,3.1220017 -7,7 0,3.877998 3.122,7 7,7 3.878,0 7,-3.122002 7,-7 0,-3.8779983 -3.122,-7 -7,-7 m 0,0.875 c 3.39325,0 6.125,2.7317509 6.125,6.125 0,3.393249 -2.73175,6.125 -6.125,6.125 -3.39325,0 -6.125,-2.731751 -6.125,-6.125 0,-3.3932491 2.73175,-6.125 6.125,-6.125 m -0.875,0.875 0,6.125 0.875,0 4.375,0 0,-0.875 -4.375,0 0,-5.25 -0.875,0"
       class="ColorScheme-Text"
       id="path6-7" />
    <path
       inkscape:connector-curvature="0"
       style="fill:currentColor;fill-opacity:1;stroke:none"
       d="m 218.00009,2 0,0.875 0,13.125 0.875,0 13.125,0 0,-0.875 0,-11.375 -6.11817,0 -1.75,-1.75 -0.007,0.00683 0,-0.00683 -5.25,0 -0.875,0 m 5.25683,4.375 7.86817,0 0,8.75 -12.25,0 0,-7 2.625,0 0,-0.00683 0.007,0.00683 1.75,-1.75"
       class="ColorScheme-Text"
       id="path6-5" />
    <path
       inkscape:connector-curvature="0"
       style="fill:currentColor;fill-opacity:1;stroke:none"
       d="m 399.75,2 0,0.875 0,3.5 -1.75,0 0,0.875 0,6.125 0.875,0 2.625,0 0,1.75 0,0.875 7,0 0,-0.875 0,-1.75 3.5,0 0,-0.875 0,-5.25 0,-0.875 -1.75,0 0,-3.5 0,-0.875 -10.5,0 m 0.875,0.875 8.75,0 0,3.5 -0.875,0 0,-0.875 -7,0 0,0.875 -0.875,0 0,-3.5 m 0.875,0.875 0,0.875 7,0 0,-0.875 -7,0 m -2.625,3.5 12.25,0 0,5.25 -1.75,0 0,-1.75 -8.75,0 0,1.75 -1.75,0 0,-5.25 m 8.75,0.875 0,0.875 2.625,0 0,-0.875 -2.625,0 m -5.25,5.25 5.25,0 0,1.75 -5.25,0 0,-1.75"
       class="ColorScheme-Text"
       id="path6-35" />
    <path
       inkscape:connector-curvature="0"
       style="fill:currentColor;fill-opacity:1;stroke:none"
       d="M 135,2 132.83634,6.60913 128,7.347412 131.5,10.934578 130.67464,16 135,13.609138 139.32536,16 138.5,10.934578 142,7.347412 137.16366,6.60913 135,2 Z m 0,1.75 1.6219,3.455567 3.6281,0.555419 -2.625,2.689937 L 138.24538,14.25 135,12.455559 131.75462,14.25 132.375,10.450923 129.75,7.760986 133.3781,7.205567 135,3.75 Z"
       class="ColorScheme-Text"
       id="path6-62" />
    <path
       inkscape:connector-curvature="0"
       style="fill:currentColor;fill-opacity:1;stroke:none"
       d="m 506.875,2 0,0.875 0,11.375 0.875,0 1.75,0 0.875,0 0,0.875 0,0.875 5.25,0 3.5,-3.5 0,-0.875 0,-6.125 0,-0.875 -1.75,0 0,-2.625 -0.875,0 -8.75,0 -0.875,0 m 0.875,0.875 8.75,0 0,1.75 -6.125,0 0,0.875 0,7.875 -0.875,0 -1.75,0 0,-10.5 m 3.5,2.625 7,0 0,6.125 -2.625,0 -0.875,0 0,0.875 0,2.625 -3.5,0 0,-9.625"
       class="ColorScheme-Text"
       id="path6-9" />
    <path
       inkscape:connector-curvature="0"
       style="fill:currentColor;fill-opacity:1;stroke:none"
       d="m 186.375,2 0,5.25 0.875,0 0,-4.375 3.5,0 0,4.375 0.875,0 0,-5.25 -0.875,0 -3.5,0 -0.875,0 z M 184.44385,8.125 183.75,8.8393553 189,14.25 194.25,8.8393553 193.55615,8.125 189,12.82129 184.44385,8.125 Z m -1.56885,6.125 0,1.75 0.875,0 10.5,0 0.875,0 0,-1.75 -0.875,0 0,0.875 -10.5,0 0,-0.875 -0.875,0 z"
       class="ColorScheme-Text"
       id="path6-1" />
    <path
       inkscape:connector-curvature="0"
       style="fill:currentColor;fill-opacity:1;stroke:none"
       d="M 385.25,2 C 382.3415,2 380,4.3414958 380,7.25 c 0,2.908504 2.3415,5.25 5.25,5.25 1.29605,0 2.47676,-0.467847 3.39062,-1.240723 L 393.38135,16 394,15.381348 389.25928,10.640625 C 390.03215,9.726761 390.5,8.5460544 390.5,7.25 390.5,4.3414958 388.1585,2 385.25,2 Z m 0,0.875 c 2.42376,0 4.375,1.9512458 4.375,4.375 0,2.423754 -1.95124,4.375 -4.375,4.375 -2.42375,0 -4.375,-1.951246 -4.375,-4.375 0,-2.4237542 1.95125,-4.375 4.375,-4.375 z"
       class="ColorScheme-Text"
       id="path6-2" />
    <path
       inkscape:connector-curvature="0"
       style="fill:currentColor;fill-opacity:1;stroke:none"
       d="m 272,2 0,1.75 A 12.249998,12.249998 0 0 1 284.25,16 L 286,16 A 13.999998,13.999998 0 0 0 272,2 m 0,3.5000001 0,1.75 A 8.75,8.75 0 0 1 280.75,16 l 1.75,0 A 10.5,10.5 0 0 0 272,5.5000001 m 0,3.5 L 272,10.75 A 5.25,5.2499886 0 0 1 277.25,16 L 279,16 A 7,6.9999851 0 0 0 272,9.0000001 M 273.3125,13.375 A 1.3125,1.3125 0 0 0 272,14.6875 1.3125,1.3125 0 0 0 273.3125,16 1.3125,1.3125 0 0 0 274.625,14.6875 1.3125,1.3125 0 0 0 273.3125,13.375"
       class="ColorScheme-Text"
       id="path6-18" />
    <path
       inkscape:connector-curvature="0"
       style="fill:currentColor;fill-opacity:1;stroke:none"
       d="m 491.51022,2 c -0.50518,0.8749999 -0.76836,0.8749999 -0.26318,1.7499998 l 3.09839,5.3730462 -1.80127,3.086426 c -0.3896,-0.360022 -0.90694,-0.584473 -1.48169,-0.584473 -1.21188,0 -2.1875,0.975625 -2.1875,2.1875 0,1.211874 0.97562,2.187499 2.1875,2.187499 1.21187,0 2.1875,-0.975625 2.1875,-2.187499 0,-0.146216 -0.0157,-0.289208 -0.0427,-0.427246 l 1.01685,-1.761961 c 0.68286,-8.75e-4 0.76895,-0.677778 1.16724,-0.687012 l 1.40307,2.433594 c -0.029,0.142657 -0.0444,0.291142 -0.0444,0.442626 0,1.211875 0.97562,2.1875 2.1875,2.1875 1.21187,0 2.1875,-0.975625 2.1875,-2.1875 0,-1.211875 -0.97563,-2.187499 -2.1875,-2.187499 -0.57167,0 -1.08594,0.222762 -1.47485,0.579345 l -1.79785,-3.081298 3.09838,-5.3730465 c 0.50518,-0.8749999 0.242,-0.8749999 -0.26318,-1.7499998 L 495.00516,7.9917 491.51028,2.0000017 m 3.48975,6.9999993 c 0.24237,0 0.4375,0.195125 0.4375,0.4375 0,0.242375 -0.19513,0.4375 -0.4375,0.4375 -0.24238,0 -0.4375,-0.195125 -0.4375,-0.4375 0,-0.242375 0.19512,-0.4375 0.4375,-0.4375 z M 491.06253,12.5 c 0.72712,0 1.3125,0.585375 1.3125,1.3125 0,0.727125 -0.58538,1.3125 -1.3125,1.3125 -0.72713,0 -1.3125,-0.585375 -1.3125,-1.3125 0,-0.727125 0.58537,-1.3125 1.3125,-1.3125 m 7.875,0 c 0.72712,0 1.3125,0.585375 1.3125,1.3125 0,0.727125 -0.58538,1.3125 -1.3125,1.3125 -0.72713,0 -1.3125,-0.585375 -1.3125,-1.3125 0,-0.727125 0.58537,-1.3125 1.3125,-1.3125"
       class="ColorScheme-Text"
       id="path6-79" />
    <path
       inkscape:connector-curvature="0"
       style="fill:currentColor;fill-opacity:1;stroke:none"
       d="m 527.5,2 0,1.75 -1.75,0 -0.875,0 0,12.25 0.875,0 11.375,0 0,-0.875 0,-11.375 -0.875,0 -1.75,0 0,-1.75 -7,0 z m -1.75,2.625 0.875,0 0,1.75 8.75,0 0,-1.75 0.875,0 0,10.5 -10.5,0 0,-10.5 z m 1.75,2.625 0,0.875 7,0 0,-0.875 -7,0 z m 0,2.625 0,0.875 5.25,0 0,-0.875 -5.25,0 z m 0,2.625 0,0.875 2.625,0 0,-0.875 -2.625,0 z"
       class="ColorScheme-Text"
       id="path6-20" />
    <path
       inkscape:connector-curvature="0"
       style="fill:currentColor;fill-opacity:1;stroke:none"
       d="M 153,2.0000001 150.83301,6.607422 146,7.3457032 149.5,10.934571 148.67285,16 153,13.607422 157.32715,16 156.5,10.934571 160,7.3457032 155.16699,6.607422 153,2.0000001 Z"
       class="ColorScheme-Text"
       id="path6-75" />
    <path
       inkscape:connector-curvature="0"
       style="fill:currentColor;fill-opacity:1;stroke:none"
       d="M 117,2 116.38137,2.618653 110,9 l 0.61863,0.618652 0.25637,-0.256349 0,6.637697 0.875,0 4.375,0 2.625,0 4.375,0 0,-0.875 0,-5.762697 0.25637,0.256349 L 124,9 l -2.625,-2.625 0,-2.625 -2.625,0 L 117.61863,2.618653 117,2 m 0,1.237305 5.25,5.249999 0,6.637696 -3.5,0 0,-4.375 -2.625,0 -0.875,0 0,4.375 -3.5,0 0,-6.637696 5.25,-5.249999"
       class="ColorScheme-Text"
       id="path6-92" />
    <path
       inkscape:connector-curvature="0"
       style="fill:currentColor;fill-opacity:1;stroke:none"
       d="M 48.190674,2 42.831294,7.359375 41.190674,9 42.831294,10.64062 48.190674,16 48.809325,15.381349 43.449945,10.021969 42.427976,9 43.449945,7.978027 48.809325,2.618653 48.190674,2"
       class="ColorScheme-Text"
       id="path6-28" />
    <path
       inkscape:connector-curvature="0"
       style="fill:currentColor;fill-opacity:1;stroke:none"
       d="M 30.190674,2 24.831294,7.3593751 23.190674,9 24.831294,10.64062 30.190674,16 30.809325,15.381349 25.449945,10.021969 24.427976,9 25.449945,7.978027 30.809325,2.6186531 30.190674,2"
       class="ColorScheme-Text"
       id="path6-97" />
    <path
       inkscape:connector-curvature="0"
       style="fill:currentColor;fill-opacity:1;stroke:none"
       d="M 59.809325,2 59.190674,2.618653 64.550055,7.978027 65.572023,9 64.550055,10.021969 59.190674,15.381349 59.809325,16 65.168706,10.64062 66.809325,9 65.168706,7.359375 59.809325,2"
       class="ColorScheme-Text"
       id="path6-36" />
    <path
       inkscape:connector-curvature="0"
       style="fill:currentColor;fill-opacity:1;stroke:none"
       d="m 261,2 a 6.9999983,7.0000009 0 0 0 -6.7727,5.25 l 0.90576,0 A 6.125,6.125 0 0 1 261,2.875 a 6.125,6.125 0 0 1 5.52002,3.5 l -3.1582,0 0,0.875 3.50171,0 0.87329,0 0,-0.099121 0,-0.7758789 0,-3.5 -0.875,0 0,2.3242187 A 6.9999983,7.0000009 0 0 0 261,2 Z m -6.73682,8.75 0,0.09912 0,0.775879 0,3.5 0.875,0 0,-2.324219 A 6.9999983,7.0000009 0 0 0 261,16 a 6.9999983,7.0000009 0 0 0 6.7727,-5.25 l -0.90575,0 A 6.125,6.125 0 0 1 261,15.125 a 6.125,6.125 0 0 1 -5.52001,-3.5 l 3.15819,0 0,-0.875 -3.5,0 -0.002,0 -0.87329,0 z"
       class="ColorScheme-Text"
       id="path6-12" />
    <path
       inkscape:connector-curvature="0"
       style="fill:currentColor;fill-opacity:1;stroke:none"
       d="m 650.00001,3.7270856 0,0.6176463 0,8.6470491 0,0.255744 0,0.361902 0.7,0 13.29998,0 0,-0.361902 0,-0.255744 0,-0.617647 0,-8.6470484 -0.0342,0 -0.66584,0 -12.27596,0 -0.32402,0 -0.7,0 z m 0.7,0.6176463 0.0342,0 4.18223,3.6914019 -4.2164,3.7203542 0,-7.4117561 z m 1.02402,0 10.55194,0 L 657,9 651.72403,4.3447319 Z m 11.54178,0 0.0342,0 0,7.4117561 -4.21639,-3.7203542 4.18222,-3.6914019 z M 655.41133,8.472829 657,9.8733913 l 1.58867,-1.4005623 4.3873,3.871147 0.32402,0.285902 0,0.361903 -12.59998,0 0,-0.361903 0.32402,-0.285902 4.3873,-3.871147 z"
       class="ColorScheme-Text"
       id="path6-93" />
    <path
       inkscape:connector-curvature="0"
       style="fill:currentColor;fill-opacity:1;stroke:none"
       d="m 566.53333,2 0,6.5333333 -6.53333,0 0,0.9333334 6.53333,0 0,6.5333333 0.93334,0 0,-6.5333333 6.53333,0 0,-0.9333334 -6.53333,0 0,-6.5333333 -0.93334,0 z"
       class="ColorScheme-Text"
       id="path6-19" />
    <path
       inkscape:connector-curvature="0"
       style="fill:currentColor;fill-opacity:1;stroke:none"
       d="m 632.375,2.875 0,6.125 8.75,0 0,-6.125 -8.75,0 z m 9.625,0 0,6.125 4.375,0 0,-6.125 -4.375,0 z m -8.75,0.875 7,0 0,4.375 -7,0 0,-4.375 z m -0.875,6.125 0,6.125 14,0 0,-6.125 -14,0 z m 0.875,0.875 12.25,0 0,4.375 -12.25,0 0,-4.375 z"
       class="ColorScheme-Text"
       id="path6-4" />
    <path
       inkscape:connector-curvature="0"
       style="fill:currentColor;fill-opacity:1;stroke:none"
       d="m 542,8.125 14,0 0,1.75 -14,0 z"
       class="ColorScheme-Text"
       id="path6-78" />
    <path
       inkscape:connector-curvature="0"
       style="fill:currentColor;fill-opacity:1;stroke:none"
       d="m 423,2 -1.75,3.5 3.5,0 L 423,2 Z M 419.5,7.25 416,9 l 3.5,1.75 0,-3.5 z m 7,0 0,3.5 L 430,9 426.5,7.25 Z M 423,8.125 c -0.48475,0 -0.875,0.39025 -0.875,0.875 0,0.48475 0.39025,0.875 0.875,0.875 0.48475,0 0.875,-0.39025 0.875,-0.875 0,-0.48475 -0.39025,-0.875 -0.875,-0.875 z m -1.75,4.375 1.75,3.5 1.75,-3.5 -3.5,0 z"
       class="ColorScheme-Text"
       id="path6-0" />
    <path
       inkscape:connector-curvature="0"
       style="display:inline;fill:#da4453;fill-opacity:1;stroke:none"
       d="m 186.375,20 0,5.25 0.875,0 0,-4.375 3.5,0 0,4.375 0.875,0 0,-5.25 -0.875,0 -3.5,0 -0.875,0 z M 184.44385,26.125 183.75,26.839355 189,32.25 194.25,26.839355 193.55615,26.125 189,30.821289 184.44385,26.125 Z m -1.56885,6.125 0,1.75 0.875,0 10.5,0 0.875,0 0,-1.75 -0.875,0 0,0.875 -10.5,0 0,-0.875 -0.875,0 z"
       class="ColorScheme-Text"
       id="path6-1-3" />
    <path
       inkscape:connector-curvature="0"
       style="fill:currentColor;fill-opacity:1;stroke:none"
       d="m 616.625,2 0,0.875 0,12.25 0,0.875 4.375,-1.75 4.375,1.75 0,-0.875 0,-12.25 0,-0.875 -8.75,0 m 0.875,0.875 7,0 0,11.899658 L 621,13.375 617.5,14.774658 617.5,2.875"
       class="ColorScheme-Text"
       id="path6-367" />
    <path
       inkscape:connector-curvature="0"
       style="fill:currentColor;fill-opacity:1;stroke:none"
       d="m 460.10693,1.75 c -1.06213,0 -1.94164,0.748937 -2.14307,1.75 l -5.29443,0 0,0.875 5.29443,0 c 0.20143,1.0010631 1.08094,1.75 2.14307,1.75 1.06213,0 1.94164,-0.7489369 2.14307,-1.75 l 4.41943,0 0,-0.875 -4.41943,0 c -0.20143,-1.001063 -1.08094,-1.75 -2.14307,-1.75 z m -5.25,9.625 c -1.21188,0 -2.1875,0.975625 -2.1875,2.1875 0,1.211875 0.97562,2.1875 2.1875,2.1875 1.06213,0 1.94164,-0.748937 2.14307,-1.75 l 9.66943,0 0,-0.875 -9.66943,0 c -0.20143,-1.001063 -1.08094,-1.75 -2.14307,-1.75 z m 0,0.875 c 0.72712,0 1.3125,0.585375 1.3125,1.3125 0,0.727125 -0.58538,1.3125 -1.3125,1.3125 -0.72713,0 -1.3125,-0.585375 -1.3125,-1.3125 0,-0.727125 0.58537,-1.3125 1.3125,-1.3125 z"
       class="ColorScheme-Text"
       id="path6-53" />
    <path
       inkscape:connector-curvature="0"
       style="fill:currentColor;fill-opacity:1;stroke:none"
       d="m 236.00017,1.9992301 0,0.00171 0,0.8749896 0,13.1248443 0.87499,0 13.12484,0 0,-0.87499 0,-9.6248854 0,-0.6118092 -0.007,0 0.007,-0.00855 -2.88131,-2.8813134 -0.007,0.00855 0,-0.00855 -0.61181,0 -10.49988,0 z m 0.87499,0.8766986 2.62496,0 0,3.4999584 0,0.8749896 6.99992,0 0,-0.8749896 0,-3.4999584 0.25635,0 2.36862,2.3686241 0,0.2563447 0,9.6248855 -1.74998,0 0,-6.1249271 -0.87499,0 -6.99992,0 -0.87498,0 0,6.1249271 -1.74998,0 0,-12.2498543 z m 3.49995,0 3.41281,0 0,3.4999584 -3.41281,0 0,-3.4999584 z m -0.87499,6.9999168 6.99992,0 0,5.2499375 -6.99992,0 0,-5.2499375 z"
       class="ColorScheme-Text"
       id="path6" />
    <path
       inkscape:connector-curvature="0"
       style="fill:currentColor;fill-opacity:1;stroke:none"
       d="m 301.375,2 a 1.7500087,1.75 0 0 0 -1.75,1.75 1.7500087,1.75 0 0 0 1.75,1.75 1.7500087,1.75 0 0 0 1.75,-1.75 1.7500087,1.75 0 0 0 -1.75,-1.75 m -3.9375,3.5 A 0.4375,0.4375 0 0 0 297,5.9375 0.4375,0.4375 0 0 0 297.4375,6.375 0.4375,0.4375 0 0 0 297.875,5.9375 0.4375,0.4375 0 0 0 297.4375,5.5 m -1.75,0.875 A 0.4375,0.43749213 0 0 0 295.25,6.8125 0.4375,0.43749213 0 0 0 295.6875,7.25 0.4375,0.43749213 0 0 0 296.125,6.8125 0.4375,0.43749213 0 0 0 295.6875,6.375 M 292.625,7.25 a 1.75,1.7500087 0 0 0 -1.75,1.75 1.75,1.7500087 0 0 0 1.75,1.75 1.75,1.7500087 0 0 0 1.75,-1.75 1.75,1.7500087 0 0 0 -1.75,-1.75 m 3.0625,3.5 a 0.43750788,0.4375 0 0 0 -0.4375,0.4375 0.43750788,0.4375 0 0 0 0.4375,0.4375 0.43750788,0.4375 0 0 0 0.4375,-0.4375 0.43750788,0.4375 0 0 0 -0.4375,-0.4375 m 1.75,0.875 A 0.4375,0.4375 0 0 0 297,12.0625 0.4375,0.4375 0 0 0 297.4375,12.5 0.4375,0.4375 0 0 0 297.875,12.0625 0.4375,0.4375 0 0 0 297.4375,11.625 m 3.9375,0.875 a 1.7500087,1.75 0 0 0 -1.75,1.75 1.7500087,1.75 0 0 0 1.75,1.75 1.7500087,1.75 0 0 0 1.75,-1.75 1.7500087,1.75 0 0 0 -1.75,-1.75"
       class="ColorScheme-Text"
       id="path6-3675" />
    <g
       transform="matrix(0.875,0,0,0.875,89.375,-0.625)"
       style="fill:#da4453"
       id="g4">
      <path
         inkscape:connector-curvature="0"
         d="M 7.837891,7.130859 A 5,5 0 0 0 7.130859,7.837891 L 10.292969,11 7.130859,14.162109 a 5,5 0 0 0 0.707032,0.707032 L 11,11.707031 l 3.162109,3.16211 a 5,5 0 0 0 0.707032,-0.707032 L 11.707031,11 14.869141,7.837891 A 5,5 0 0 0 14.162109,7.130859 L 11,10.292969 7.837891,7.130859"
         id="path6-36753" />
      <path
         inkscape:connector-curvature="0"
         d="m 11,3 a 8,7.99997 0 0 0 -8,8 8,7.99997 0 0 0 8,8 8,7.99997 0 0 0 8,-8 8,7.99997 0 0 0 -8,-8 m 0,1 a 7,6.999974 0 0 1 7,7 7,6.999974 0 0 1 -7,7 7,6.999974 0 0 1 -7,-7 7,6.999974 0 0 1 7,-7"
         id="path8" />
    </g>
    <path
       inkscape:connector-curvature="0"
       style="fill:currentColor;fill-opacity:1;stroke:none"
       d="m 81,2 c -1.2615,0 -2.440629,0.3350567 -3.460694,0.9143067 l 0.645997,0.645996 c 0,0 0.0018,-0.00171 0.0018,-0.00171 L 80.61894,5.9887696 81.237592,5.3701172 79.065473,3.1997071 C 79.674099,2.996115 80.320923,2.875 81,2.875 c 3.393224,0 6.125,2.73175 6.125,6.125 0,1.017188 -0.250099,1.97216 -0.685303,2.814697 l 0.645996,0.645996 C 87.664988,11.440618 88,10.261488 88,9 88,5.122 84.87797,2 81,2 Z M 74.914306,5.5393067 C 74.335011,6.559382 74,7.738512 74,9 c 0,3.878 3.12203,7 7,7 1.2615,0 2.440628,-0.335057 3.460693,-0.914307 l -0.598145,-0.598144 0.0018,-0.0018 -2.47461,-2.47461 -0.618652,0.618653 2.168702,2.168701 C 82.32956,15.003265 81.680981,15.125 81,15.125 c -3.393224,0 -6.125,-2.73175 -6.125,-6.125 0,-1.017187 0.2501,-1.97216 0.685303,-2.814697 L 74.914306,5.5393067 Z"
       class="ColorScheme-Text"
       id="path6-56" />
    <path
       inkscape:connector-curvature="0"
       style="fill:currentColor;fill-opacity:1;stroke:none"
       d="m 344,2 0,0.875 0,12.25 0,0.875 8.75,0 0,-0.875 -7.875,0 0,-12.25 3.5,0 0,2.625 7,0 1.75,0 0,5.25 0.875,0 0,-6.125 -0.875,0 -1.75,0 0,-2.625 -7,0 -3.5,0 L 344,2 Z m 11.375,9.625 0,1.75 -1.75,0 0,0.875 1.75,0 0,1.75 0.875,0 0,-1.75 1.75,0 0,-0.875 -1.75,0 0,-1.75 -0.875,0 z"
       class="ColorScheme-Text"
       id="path6-29" />
    <path
       inkscape:connector-curvature="0"
       style="fill:currentColor;fill-opacity:1;stroke:none"
       d="M 765,12.5 759,6.249 759.719,5.5 763.844,9.798 765,11.035 766.156,9.798 770.281,5.5 771,6.249 766.875,10.547 Z"
       class="ColorScheme-Text"
       id="path6-367535" />
    <path
       inkscape:connector-curvature="0"
       style="fill:#da4453;fill-opacity:1;stroke:none"
       d="m 765,30.465 -6,-6.251 0.719,-0.749 4.125,4.298 L 765,29 l 1.156,-1.237 4.125,-4.298 0.719,0.749 -4.125,4.298 z"
       class="ColorScheme-Text"
       id="path6-629" />
  </g>
</svg>
