<?xml version="1.0" encoding="UTF-8" standalone="no"?>
<svg
   xmlns:dc="http://purl.org/dc/elements/1.1/"
   xmlns:cc="http://creativecommons.org/ns#"
   xmlns:rdf="http://www.w3.org/1999/02/22-rdf-syntax-ns#"
   xmlns:svg="http://www.w3.org/2000/svg"
   xmlns="http://www.w3.org/2000/svg"
   xmlns:sodipodi="http://sodipodi.sourceforge.net/DTD/sodipodi-0.dtd"
   xmlns:inkscape="http://www.inkscape.org/namespaces/inkscape"
   viewBox="0 0 24 24"
   id="svg2"
   version="1.1"
   inkscape:version="0.91 r13725"
   sodipodi:docname="document-decrypt.svg">
  <metadata
     id="metadata10">
    <rdf:RDF>
      <cc:Work
         rdf:about="">
        <dc:format>image/svg+xml</dc:format>
        <dc:type
           rdf:resource="http://purl.org/dc/dcmitype/StillImage" />
      </cc:Work>
    </rdf:RDF>
  </metadata>
  <sodipodi:namedview
     pagecolor="#ffffff"
     bordercolor="#666666"
     borderopacity="1"
     objecttolerance="10"
     gridtolerance="10"
     guidetolerance="10"
     inkscape:pageopacity="0"
     inkscape:pageshadow="2"
     inkscape:window-width="784"
     inkscape:window-height="480"
     id="namedview8"
     showgrid="false"
     inkscape:zoom="6.9532167"
     inkscape:cx="10.090469"
     inkscape:cy="7.2048724"
     inkscape:window-x="549"
     inkscape:window-y="147"
     inkscape:window-maximized="0"
     inkscape:current-layer="svg2" />
  <defs
     id="defs3051">
    <style
       type="text/css"
       id="current-color-scheme">
      .ColorScheme-Text {
        color:#f2f2f2;
      }
      </style>
  </defs>
  <path
     style="color:#f2f2f2;fill:currentColor;fill-opacity:1;stroke:none"
     d="m 12.055089,0.49734452 c -3.1393344,0 -5.6666678,2.52733238 -5.6666678,5.66666458 l 0,1.4166652 1.4166651,0 0,-0.7083313 c 0,-2.7469161 1.8955026,-4.9583326 4.2500027,-4.9583326 2.3545,0 4.25,2.2114165 4.25,4.9583326 l 0,4.958332 -7.0833376,0 -1.4166651,0 -1.4166651,0 -1.4166673,0 -1.4166655,0 0,1.416663 0,9.916665 1.4166655,0 14.1666631,0 1.416671,0 0,-11.333328 -1.416671,0 -1.416673,0 0,-5.6666659 c 0,-3.1393322 -2.527327,-5.66666458 -5.666655,-5.66666458 M 4.9717539,13.247338 l 14.1666631,0 0,8.500004 -14.1666631,0 0,-8.500004"
     class="ColorScheme-Text"
     id="path6"
     inkscape:connector-curvature="0" />
</svg>
