<?xml version="1.0" encoding="UTF-8" standalone="no"?>
<svg
   xmlns:dc="http://purl.org/dc/elements/1.1/"
   xmlns:cc="http://creativecommons.org/ns#"
   xmlns:rdf="http://www.w3.org/1999/02/22-rdf-syntax-ns#"
   xmlns:svg="http://www.w3.org/2000/svg"
   xmlns="http://www.w3.org/2000/svg"
   xmlns:sodipodi="http://sodipodi.sourceforge.net/DTD/sodipodi-0.dtd"
   xmlns:inkscape="http://www.inkscape.org/namespaces/inkscape"
   viewBox="0 0 224 32"
   id="svg2"
   version="1.1"
   inkscape:version="0.91 r13725"
   sodipodi:docname="document-encrypted.svg"
   width="224"
   height="32"
   inkscape:export-filename="/home/jacobtey/Options.png"
   inkscape:export-xdpi="90"
   inkscape:export-ydpi="90">
  <metadata
     id="metadata10">
    <rdf:RDF>
      <cc:Work
         rdf:about="">
        <dc:format>image/svg+xml</dc:format>
        <dc:type
           rdf:resource="http://purl.org/dc/dcmitype/StillImage" />
        <dc:title></dc:title>
      </cc:Work>
    </rdf:RDF>
  </metadata>
  <sodipodi:namedview
     pagecolor="#ffffff"
     bordercolor="#666666"
     borderopacity="1"
     objecttolerance="10"
     gridtolerance="10"
     guidetolerance="10"
     inkscape:pageopacity="0"
     inkscape:pageshadow="2"
     inkscape:window-width="1280"
     inkscape:window-height="724"
     id="namedview8"
     showgrid="true"
     showguides="false"
     inkscape:zoom="9.9103063"
     inkscape:cx="179.7232"
     inkscape:cy="13.488272"
     inkscape:window-x="0"
     inkscape:window-y="28"
     inkscape:window-maximized="1"
     inkscape:current-layer="svg2">
    <inkscape:grid
       type="xygrid"
       id="grid4138"
       empspacing="16" />
  </sodipodi:namedview>
  <defs
     id="defs3051">
    <style
       type="text/css"
       id="current-color-scheme">
      .ColorScheme-Text {
        color:#f2f2f2;
      }
      </style>
  </defs>
  <path
     style="color:#f2f2f2;fill:currentColor;fill-opacity:1;stroke:none"
     d="m 175.8954,0.89774199 c -4.155,0 -7.5,3.34499981 -7.5,7.50000031 l 0,7.4999997 -3.75,0 c 0,5.000001 0,9.999999 0,15 7.5,0 15,0 22.5,0 l 0,-15 c -1.25001,0 -2.49999,0 -3.75,0 l 0,-7.4999997 c 0,-4.1550005 -3.345,-7.50000031 -7.5,-7.50000031 m 0,1.87499991 c 3.11625,0 5.625,2.9268755 5.625,6.5625001 l 0,6.5625 -11.25,0 0,-6.5625 c 0,-3.6356246 2.50875,-6.5625001 5.625,-6.5625001"
     class="ColorScheme-Text"
     id="path6"
     inkscape:connector-curvature="0" />
  <path
     inkscape:connector-curvature="0"
     style="color:#f2f2f2;fill:currentColor;fill-opacity:1;stroke:none"
     d="m 112.90468,1.1387086 c -2.27599,0 -4.16067,1.6048645 -4.59228,3.7499989 l -11.345216,0 0,1.8749995 11.345216,0 c 0.43161,2.1451344 2.31629,3.749998 4.59228,3.749998 2.27599,0 4.16067,-1.6048636 4.59228,-3.749998 l 9.47022,0 0,-1.8749995 -9.47022,0 c -0.43161,-2.1451344 -2.31629,-3.7499989 -4.59228,-3.7499989 z m -11.25,20.6249944 c -2.596872,0 -4.687496,2.090624 -4.687496,4.687498 0,2.596875 2.090624,4.687499 4.687496,4.687499 2.27599,0 4.16067,-1.604865 4.59228,-3.749999 l 20.72022,0 0,-1.874999 -20.72022,0 c -0.43161,-2.145135 -2.31629,-3.749999 -4.59228,-3.749999 z m 0,1.874999 c 1.55812,0 2.8125,1.254375 2.8125,2.812499 0,1.558125 -1.25438,2.8125 -2.8125,2.8125 -1.55812,0 -2.812497,-1.254375 -2.812497,-2.8125 0,-1.558124 1.254377,-2.812499 2.812497,-2.812499 z"
     class="ColorScheme-Text"
     id="path6-3" />
  <path
     inkscape:connector-curvature="0"
     style="color:#f2f2f2;fill:currentColor;fill-opacity:1;stroke:none"
     d="m 64.992086,1.0286223 0,3.75 a 26.249996,26.249996 0 0 1 26.25,26.2499997 l 3.75,0 a 29.999996,29.999996 0 0 0 -30,-29.9999997 m 0,7.5 0,3.7499997 a 18.75,18.75 0 0 1 18.75,18.75 l 3.75,0 a 22.5,22.5 0 0 0 -22.5,-22.4999997 m 0,7.4999997 0,3.75 a 11.25,11.249976 0 0 1 11.25,11.25 l 3.75,0 a 15,14.999968 0 0 0 -15,-15 m 2.8125,9.375 a 2.8125,2.8125 0 0 0 -2.8125,2.8125 2.8125,2.8125 0 0 0 2.8125,2.8125 2.8125,2.8125 0 0 0 2.8125,-2.8125 2.8125,2.8125 0 0 0 -2.8125,-2.8125"
     class="ColorScheme-Text"
     id="path6-6" />
  <path
     inkscape:connector-curvature="0"
     style="color:#f2f2f2;fill:currentColor;fill-opacity:1;stroke:none"
     d="m 2.9557476,1.0365363 0,29.9999997 1.875,0 15.0000004,0 1.875,0 0,-0.01838 0.01465,0.01838 7.485352,-7.485352 0,-0.01465 0,-2.636719 0,-19.8632807 -1.875,0 -22.5000004,0 -1.875,0 m 1.875,1.875 22.5000004,0 0,18.7499997 -7.5,0 0,1.875 0,5.625 -15.0000004,0 0,-26.2499997"
     class="ColorScheme-Text"
     id="path6-7" />
  <path
     inkscape:connector-curvature="0"
     style="color:#f2f2f2;opacity:1;fill:currentColor;fill-opacity:1;stroke:none"
     d="m 32.929961,2.0063394 0,28.1249996 1.875,0 3.75,0 18.75,0 3.75,0 1.875,0 0,-28.1249996 -1.875,0 -3.75,0 -18.75,0 -3.75,0 -1.875,0 z m 1.875,1.875 1.875,0 0,1.875 -1.875,0 0,-1.875 z m 3.75,0 18.75,0 0,10.3124996 -18.75,0 0,-10.3124996 z m 20.625,0 1.875,0 0,1.875 -1.875,0 0,-1.875 z m -24.375,5.625 1.875,0 0,1.8749996 -1.875,0 0,-1.8749996 z m 24.375,0 1.875,0 0,1.8749996 -1.875,0 0,-1.8749996 z m -24.375,5.6249996 1.875,0 0,1.875 -1.875,0 0,-1.875 z m 24.375,0 1.875,0 0,1.875 -1.875,0 0,-1.875 z m -20.625,2.8125 18.75,0 0,10.3125 -18.75,0 0,-10.3125 z m -3.75,2.8125 1.875,0 0,1.875 -1.875,0 0,-1.875 z m 24.375,0 1.875,0 0,1.875 -1.875,0 0,-1.875 z m -24.375,5.625 1.875,0 0,1.875 -1.875,0 0,-1.875 z m 24.375,0 1.875,0 0,1.875 -1.875,0 0,-1.875 z"
     class="ColorScheme-Text"
     id="path4867" />
</svg>
