<?xml version="1.0" encoding="UTF-8" standalone="no"?>
<!-- This Source Code Form is subject to the terms of the Mozilla Public
   - License, v. 2.0. If a copy of the MPL was not distributed with this
   - file, You can obtain one at http://mozilla.org/MPL/2.0/. -->

<svg
   xmlns:dc="http://purl.org/dc/elements/1.1/"
   xmlns:cc="http://creativecommons.org/ns#"
   xmlns:rdf="http://www.w3.org/1999/02/22-rdf-syntax-ns#"
   xmlns:svg="http://www.w3.org/2000/svg"
   xmlns="http://www.w3.org/2000/svg"
   xmlns:xlink="http://www.w3.org/1999/xlink"
   xmlns:sodipodi="http://sodipodi.sourceforge.net/DTD/sodipodi-0.dtd"
   xmlns:inkscape="http://www.inkscape.org/namespaces/inkscape"
   width="24"
   height="24"
   viewBox="0 0 24 24"
   id="svg2"
   version="1.1"
   inkscape:version="0.91 r13725"
   sodipodi:docname="mcb-disabled.svg">
  <metadata
     id="metadata24">
    <rdf:RDF>
      <cc:Work
         rdf:about="">
        <dc:format>image/svg+xml</dc:format>
        <dc:type
           rdf:resource="http://purl.org/dc/dcmitype/StillImage" />
        <dc:title></dc:title>
      </cc:Work>
    </rdf:RDF>
  </metadata>
  <sodipodi:namedview
     pagecolor="#ffffff"
     bordercolor="#666666"
     borderopacity="1"
     objecttolerance="10"
     gridtolerance="10"
     guidetolerance="10"
     inkscape:pageopacity="0"
     inkscape:pageshadow="2"
     inkscape:window-width="1280"
     inkscape:window-height="724"
     id="namedview22"
     showgrid="false"
     inkscape:zoom="14.724234"
     inkscape:cx="1.0633084"
     inkscape:cy="12.716098"
     inkscape:window-x="0"
     inkscape:window-y="28"
     inkscape:window-maximized="1"
     inkscape:current-layer="svg2" />
  <style
     id="style4">
    .icon-default {
      fill: #808080;
    }
  </style>
  <defs
     id="defs6">
    <rect
       id="shape-lock-clasp-outer"
       x="5"
       y="1"
       width="14"
       height="20"
       rx="7"
       ry="7" />
    <rect
       id="shape-lock-clasp-inner"
       x="8"
       y="4"
       width="8"
       height="14"
       rx="4"
       ry="4" />
    <rect
       id="shape-lock-base"
       x="3"
       y="10"
       width="18"
       height="13"
       rx="1.5"
       ry="1.5" />
    <mask
       id="mask-clasp-cutout">
      <rect
         width="24"
         height="24"
         fill="#000"
         id="rect12" />
      <use
         xlink:href="#shape-lock-clasp-outer"
         fill="#fff"
         id="use14" />
      <use
         xlink:href="#shape-lock-clasp-inner"
         fill="#000"
         id="use16" />
    </mask>
  </defs>
  <path
     style="color:#f2f2f2;fill:#da4453;fill-opacity:1;stroke:none"
     d="m 12.134355,0.58606882 c -3.1393336,0 -5.6666679,2.52733398 -5.6666679,5.66666708 l 0,5.6666691 -2.8333327,0 c 0,3.777769 0,7.55555 0,11.33333 5.666667,0 11.3333306,0 17.0000006,0 l 0,-11.33333 c -0.944448,0 -1.888885,0 -2.83333,0 l 0,-5.6666691 c 0,-3.1393331 -2.52734,-5.66666708 -5.66667,-5.66666708 m 0,1.41666698 c 2.3545,0 4.25,2.2114177 4.25,4.9583322 l 0,4.958337 -8.5000006,0 0,-4.958337 c 0,-2.7469145 1.8955,-4.9583322 4.2500006,-4.9583322"
     class="ColorScheme-Text"
     id="path6"
     inkscape:connector-curvature="0" />
</svg>
