<?xml version="1.0" encoding="UTF-8" standalone="no"?>
<svg
   xmlns:dc="http://purl.org/dc/elements/1.1/"
   xmlns:cc="http://creativecommons.org/ns#"
   xmlns:rdf="http://www.w3.org/1999/02/22-rdf-syntax-ns#"
   xmlns:svg="http://www.w3.org/2000/svg"
   xmlns="http://www.w3.org/2000/svg"
   xmlns:sodipodi="http://sodipodi.sourceforge.net/DTD/sodipodi-0.dtd"
   xmlns:inkscape="http://www.inkscape.org/namespaces/inkscape"
   viewBox="0 0 22 22"
   id="svg2"
   version="1.1"
   inkscape:version="0.91 r13725"
   sodipodi:docname="security-medium.svg">
  <metadata
     id="metadata13">
    <rdf:RDF>
      <cc:Work
         rdf:about="">
        <dc:format>image/svg+xml</dc:format>
        <dc:type
           rdf:resource="http://purl.org/dc/dcmitype/StillImage" />
      </cc:Work>
    </rdf:RDF>
  </metadata>
  <sodipodi:namedview
     pagecolor="#ffffff"
     bordercolor="#666666"
     borderopacity="1"
     objecttolerance="10"
     gridtolerance="10"
     guidetolerance="10"
     inkscape:pageopacity="0"
     inkscape:pageshadow="2"
     inkscape:window-width="784"
     inkscape:window-height="480"
     id="namedview11"
     showgrid="false"
     inkscape:zoom="10.727273"
     inkscape:cx="11"
     inkscape:cy="11"
     inkscape:window-x="0"
     inkscape:window-y="28"
     inkscape:window-maximized="0"
     inkscape:current-layer="svg2" />
  <defs
     id="defs3051">
    <style
       type="text/css"
       id="current-color-scheme">
      .ColorScheme-Text {
        color:#f2f2f2;
      }
      .ColorScheme-NeutralText {
        color:#f67400;
      }
      </style>
  </defs>
  <g
     transform="matrix(1.2941221,0,0,1.2941221,-3.8654173,-1336.7656)"
     id="g6">
    <path
       style="color:#f2f2f2;opacity:1;fill:currentColor;fill-opacity:1;stroke:none"
       d="M 11,3 C 11,3 9,5.6575188 3,6.3242188 3,6.3242188 3,15.6581 11,19 19,15.6581 19,6.3242188 19,6.3242188 13,5.6575188 11,3 11,3 Z m 0,1.3769531 c 1.586995,1.3447853 3.87716,2.2417761 6.845703,2.6933594 -0.161259,1.4452 -0.315875,2.5327842 -0.689453,3.5839845 -0.78509,2.2091 -1.700475,3.553031 -2.521484,4.519531 C 13.362538,16.671474 12.207192,17.277691 11,17.880859 9.7928082,17.277691 8.6374611,16.671474 7.3652344,15.173828 6.544225,14.207328 5.6288398,12.863397 4.84375,10.654297 4.4701723,9.6030967 4.3155563,8.5155125 4.1542969,7.0703125 7.1228397,6.6187292 9.4130046,5.7217384 11,4.3769531 Z m 0,1.1992188 C 9.2565091,6.786444 7.2978494,7.3993841 5.3320312,7.8164062 6.2628766,13.098378 8.2681151,15.357097 11,16.771484 L 11,5.5761719 Z"
       transform="translate(0,1030.3622)"
       class="ColorScheme-Text"
       id="path4943-9-4-1"
       inkscape:connector-curvature="0" />
    <path
       style="color:#f67400;fill:currentColor;fill-opacity:1;stroke:none"
       class="ColorScheme-NeutralText"
       d="m 15.5,1041.3602 0.0039,0 a 0.5,0.5 0 0 1 0.439453,0.2695 l 0.0039,0 3.986328,6.9746 -0.002,0 a 0.5,0.5 0 0 1 0.06836,0.252 0.5,0.5 0 0 1 -0.5,0.5 l -8,0 a 0.5,0.5 0 0 1 -0.5,-0.5 0.5,0.5 0 0 1 0.06836,-0.252 l -0.002,0 3.986328,-6.9727 0.002,0 a 0.5,0.5 0 0 1 0.002,0 0.5,0.5 0 0 1 0.443359,-0.2715 l 0,0 z"
       id="path4250"
       inkscape:connector-curvature="0" />
    <path
       style="opacity:1;fill:#ffffff;fill-opacity:1;stroke:none"
       d="m 15,13 0,3 1,0 0,-3 -1,0 z m 0,4 0,1 1,0 0,-1 -1,0 z"
       transform="translate(0,1030.3622)"
       id="rect4241"
       inkscape:connector-curvature="0" />
  </g>
</svg>
