<?xml version="1.0" encoding="UTF-8" standalone="no"?>
<svg
   xmlns:dc="http://purl.org/dc/elements/1.1/"
   xmlns:cc="http://creativecommons.org/ns#"
   xmlns:rdf="http://www.w3.org/1999/02/22-rdf-syntax-ns#"
   xmlns:svg="http://www.w3.org/2000/svg"
   xmlns="http://www.w3.org/2000/svg"
   xmlns:sodipodi="http://sodipodi.sourceforge.net/DTD/sodipodi-0.dtd"
   xmlns:inkscape="http://www.inkscape.org/namespaces/inkscape"
   viewBox="0 0 22 22"
   id="svg2"
   version="1.1"
   inkscape:version="0.91 r13725"
   sodipodi:docname="warning-yellow.svg"
   width="22"
   height="22">
  <metadata
     id="metadata13">
    <rdf:RDF>
      <cc:Work
         rdf:about="">
        <dc:format>image/svg+xml</dc:format>
        <dc:type
           rdf:resource="http://purl.org/dc/dcmitype/StillImage" />
        <dc:title></dc:title>
      </cc:Work>
    </rdf:RDF>
  </metadata>
  <sodipodi:namedview
     pagecolor="#ffffff"
     bordercolor="#666666"
     borderopacity="1"
     objecttolerance="10"
     gridtolerance="10"
     guidetolerance="10"
     inkscape:pageopacity="0"
     inkscape:pageshadow="2"
     inkscape:window-width="1280"
     inkscape:window-height="724"
     id="namedview11"
     showgrid="false"
     inkscape:zoom="16.125546"
     inkscape:cx="7.5298639"
     inkscape:cy="10.723143"
     inkscape:window-x="0"
     inkscape:window-y="28"
     inkscape:window-maximized="1"
     inkscape:current-layer="g6" />
  <defs
     id="defs3051">
    <style
       type="text/css"
       id="current-color-scheme">
      .ColorScheme-Text {
        color:#f2f2f2;
      }
      .ColorScheme-NeutralText {
        color:#f67400;
      }
      </style>
  </defs>
  <g
     transform="translate(0,-1030.3622)"
     id="g6">
    <path
       style="color:#f67400;fill:currentColor;fill-opacity:1;stroke:none"
       class="ColorScheme-NeutralText"
       d="m 10.973401,1032.3535 0.0085,0 a 1.1444453,1.1444453 0 0 1 1.005862,0.6143 l 0.0084,0 9.12426,15.9646 -0.0039,0 a 1.1444453,1.1444453 0 0 1 0.156485,0.5768 1.1444453,1.1444453 0 0 1 -1.144447,1.1454 l -18.3110974,0 a 1.1444453,1.1444453 0 0 1 -1.14445168,-1.1454 1.1444453,1.1444453 0 0 1 0.15649655,-0.5768 l -0.004318,0 9.12425873,-15.9582 0.00424,0 a 1.1444453,1.1444453 0 0 1 0.00424,0 1.1444453,1.1444453 0 0 1 1.0147988,-0.6208 l 0,0 z"
       id="path4250"
       inkscape:connector-curvature="0" />
    <path
       style="opacity:1;fill:#ffffff;fill-opacity:1;stroke:none"
       d="m 9.8289548,1036.9349 0,6.866 2.2888912,0 0,-6.866 -2.2888912,0 z m 0,9.1546 0,2.2908 2.2888912,0 0,-2.2908 -2.2888912,0 z"
       id="rect4241"
       inkscape:connector-curvature="0" />
  </g>
</svg>
