<?xml version="1.0" encoding="UTF-8" standalone="no"?>
<svg
   xmlns:dc="http://purl.org/dc/elements/1.1/"
   xmlns:cc="http://creativecommons.org/ns#"
   xmlns:rdf="http://www.w3.org/1999/02/22-rdf-syntax-ns#"
   xmlns:svg="http://www.w3.org/2000/svg"
   xmlns="http://www.w3.org/2000/svg"
   xmlns:sodipodi="http://sodipodi.sourceforge.net/DTD/sodipodi-0.dtd"
   xmlns:inkscape="http://www.inkscape.org/namespaces/inkscape"
   viewBox="0 0 22 22"
   id="svg2"
   version="1.1"
   inkscape:version="0.91 r13725"
   sodipodi:docname="tab-close-active.svg">
  <metadata
     id="metadata14">
    <rdf:RDF>
      <cc:Work
         rdf:about="">
        <dc:format>image/svg+xml</dc:format>
        <dc:type
           rdf:resource="http://purl.org/dc/dcmitype/StillImage" />
        <dc:title></dc:title>
      </cc:Work>
    </rdf:RDF>
  </metadata>
  <defs
     id="defs12" />
  <sodipodi:namedview
     pagecolor="#ffffff"
     bordercolor="#666666"
     borderopacity="1"
     objecttolerance="10"
     gridtolerance="10"
     guidetolerance="10"
     inkscape:pageopacity="0"
     inkscape:pageshadow="2"
     inkscape:window-width="784"
     inkscape:window-height="480"
     id="namedview10"
     showgrid="false"
     inkscape:zoom="10.727273"
     inkscape:cx="11"
     inkscape:cy="11"
     inkscape:window-x="0"
     inkscape:window-y="28"
     inkscape:window-maximized="0"
     inkscape:current-layer="svg2" />
  <g
     style="fill:#da4453"
     id="g4"
     transform="matrix(1.375,0,0,1.375,-4.1080508,-4.1419492)">
    <path
       d="M 7.837891,7.130859 A 5,5 0 0 0 7.130859,7.837891 L 10.292969,11 7.130859,14.162109 a 5,5 0 0 0 0.707032,0.707032 L 11,11.707031 l 3.162109,3.16211 a 5,5 0 0 0 0.707032,-0.707032 L 11.707031,11 14.869141,7.837891 A 5,5 0 0 0 14.162109,7.130859 L 11,10.292969 7.837891,7.130859"
       id="path6"
       inkscape:connector-curvature="0" />
    <path
       d="m 11,3 a 8,7.99997 0 0 0 -8,8 8,7.99997 0 0 0 8,8 8,7.99997 0 0 0 8,-8 8,7.99997 0 0 0 -8,-8 m 0,1 a 7,6.999974 0 0 1 7,7 7,6.999974 0 0 1 -7,7 7,6.999974 0 0 1 -7,-7 7,6.999974 0 0 1 7,-7"
       id="path8"
       inkscape:connector-curvature="0" />
  </g>
</svg>
