<?xml version="1.0" encoding="UTF-8" standalone="no"?>
<!-- Created with Inkscape (http://www.inkscape.org/) -->

<svg
   xmlns:dc="http://purl.org/dc/elements/1.1/"
   xmlns:cc="http://creativecommons.org/ns#"
   xmlns:rdf="http://www.w3.org/1999/02/22-rdf-syntax-ns#"
   xmlns:svg="http://www.w3.org/2000/svg"
   xmlns="http://www.w3.org/2000/svg"
   xmlns:sodipodi="http://sodipodi.sourceforge.net/DTD/sodipodi-0.dtd"
   xmlns:inkscape="http://www.inkscape.org/namespaces/inkscape"
   id="svg2"
   version="1.1"
   inkscape:version="0.91 r13725"
   width="810"
   height="36"
   viewBox="0 0 810 36"
   sodipodi:docname="toolbar-icons-active.svg">
  <metadata
     id="metadata8">
    <rdf:RDF>
      <cc:Work
         rdf:about="">
        <dc:format>image/svg+xml</dc:format>
        <dc:type
           rdf:resource="http://purl.org/dc/dcmitype/StillImage" />
        <dc:title />
      </cc:Work>
    </rdf:RDF>
  </metadata>
  <defs
     id="defs6">
    <inkscape:path-effect
       effect="spiro"
       id="path-effect4386-3"
       is_visible="true" />
  </defs>
  <sodipodi:namedview
     pagecolor="#ffffff"
     bordercolor="#666666"
     borderopacity="1"
     objecttolerance="10"
     gridtolerance="10"
     guidetolerance="10"
     inkscape:pageopacity="0"
     inkscape:pageshadow="2"
     inkscape:window-width="1280"
     inkscape:window-height="726"
     id="namedview4"
     showgrid="true"
     inkscape:snap-bbox="true"
     inkscape:bbox-paths="true"
     inkscape:bbox-nodes="true"
     inkscape:snap-bbox-edge-midpoints="true"
     showguides="false"
     inkscape:guide-bbox="true"
     inkscape:zoom="2.2817686"
     inkscape:cx="103.11156"
     inkscape:cy="-9.8380267"
     inkscape:current-layer="layer2"
     inkscape:object-paths="true"
     inkscape:snap-intersection-paths="true"
     inkscape:object-nodes="true"
     inkscape:snap-bbox-midpoints="true"
     inkscape:snap-nodes="true"
     inkscape:snap-global="true"
     inkscape:window-x="0"
     inkscape:window-y="26"
     inkscape:window-maximized="1">
    <inkscape:grid
       type="xygrid"
       id="grid4138"
       empspacing="9" />
    <sodipodi:guide
       position="18,27"
       orientation="1,0"
       id="guide4140" />
    <sodipodi:guide
       position="36,27"
       orientation="1,0"
       id="guide4144" />
    <sodipodi:guide
       position="54,27"
       orientation="1,0"
       id="guide4165" />
    <sodipodi:guide
       position="72,27"
       orientation="1,0"
       id="guide4167" />
    <sodipodi:guide
       position="90,27"
       orientation="1,0"
       id="guide4169" />
    <sodipodi:guide
       position="108,27"
       orientation="1,0"
       id="guide4171" />
    <sodipodi:guide
       position="126,27"
       orientation="1,0"
       id="guide4173" />
    <sodipodi:guide
       position="144,26"
       orientation="1,0"
       id="guide4175" />
    <sodipodi:guide
       position="162,26"
       orientation="1,0"
       id="guide4177" />
    <sodipodi:guide
       position="180,26"
       orientation="1,0"
       id="guide4179" />
    <sodipodi:guide
       position="198,26"
       orientation="1,0"
       id="guide4181" />
    <sodipodi:guide
       position="216,26"
       orientation="1,0"
       id="guide4183" />
    <sodipodi:guide
       position="234,26"
       orientation="1,0"
       id="guide4185" />
    <sodipodi:guide
       position="252,26"
       orientation="1,0"
       id="guide4187" />
    <sodipodi:guide
       position="270,27"
       orientation="1,0"
       id="guide4189" />
    <sodipodi:guide
       position="288,27"
       orientation="1,0"
       id="guide4191" />
    <sodipodi:guide
       position="306,27"
       orientation="1,0"
       id="guide4193" />
    <sodipodi:guide
       position="324,27"
       orientation="1,0"
       id="guide4195" />
    <sodipodi:guide
       position="342,27"
       orientation="1,0"
       id="guide4197" />
    <sodipodi:guide
       position="360,27"
       orientation="1,0"
       id="guide4199" />
    <sodipodi:guide
       position="378,27"
       orientation="1,0"
       id="guide4201" />
    <sodipodi:guide
       position="396,27"
       orientation="1,0"
       id="guide4203" />
    <sodipodi:guide
       position="414,27"
       orientation="1,0"
       id="guide4205" />
    <sodipodi:guide
       position="432,27"
       orientation="1,0"
       id="guide4207" />
    <sodipodi:guide
       position="450,27"
       orientation="1,0"
       id="guide4209" />
    <sodipodi:guide
       position="468,27"
       orientation="1,0"
       id="guide4211" />
    <sodipodi:guide
       position="486,27"
       orientation="1,0"
       id="guide4213" />
    <sodipodi:guide
       position="504,27"
       orientation="1,0"
       id="guide4215" />
    <sodipodi:guide
       position="522,27"
       orientation="1,0"
       id="guide4217" />
    <sodipodi:guide
       position="540,27"
       orientation="1,0"
       id="guide4219" />
    <sodipodi:guide
       position="558,27"
       orientation="1,0"
       id="guide4221" />
    <sodipodi:guide
       position="576,27"
       orientation="1,0"
       id="guide4223" />
    <sodipodi:guide
       position="594,27"
       orientation="1,0"
       id="guide4225" />
    <sodipodi:guide
       position="612,27"
       orientation="1,0"
       id="guide4227" />
    <sodipodi:guide
       position="630,27"
       orientation="1,0"
       id="guide4229" />
    <sodipodi:guide
       position="648,27"
       orientation="1,0"
       id="guide4231" />
    <sodipodi:guide
       position="666,27"
       orientation="1,0"
       id="guide4233" />
    <sodipodi:guide
       position="684,27"
       orientation="1,0"
       id="guide4235" />
    <sodipodi:guide
       position="702,27"
       orientation="1,0"
       id="guide4237" />
    <sodipodi:guide
       position="720,27"
       orientation="1,0"
       id="guide4239" />
    <sodipodi:guide
       position="738,27"
       orientation="1,0"
       id="guide4241" />
    <sodipodi:guide
       position="756,27"
       orientation="1,0"
       id="guide4243" />
    <sodipodi:guide
       position="0,18"
       orientation="0,1"
       id="guide4245" />
    <sodipodi:guide
       position="59.720667,21.020803"
       orientation="0,1"
       id="guide4691" />
    <sodipodi:guide
       position="63,33"
       orientation="0,1"
       id="guide4693" />
    <sodipodi:guide
       position="450,18"
       orientation="1,0"
       id="guide4716" />
  </sodipodi:namedview>
  <g
     inkscape:groupmode="layer"
     id="layer2"
     inkscape:label="Layer 2"
     style="display:inline">
    <g
       id="g4352"
       style="fill:#d3dae3;fill-opacity:1">
      <path
         id="rect4294-9"
         d="m 668,3 0,12 14,0 0,-12 -14,0 z m 6,1 1,0 0,1 -1,0 0,-1 z m 2,0 1,0 0,1 -1,0 0,-1 z m 2,0 2,0 0,1 -2,0 0,-1 z m -8,2 10,0 0,7 -10,0 0,-7 z"
         style="opacity:1;fill:#d3dae3;fill-opacity:1;stroke:none;stroke-width:1;stroke-linecap:round;stroke-linejoin:miter;stroke-miterlimit:4;stroke-dasharray:none;stroke-dashoffset:0;stroke-opacity:1"
         inkscape:connector-curvature="0" />
      <rect
         ry="1.38778e-16"
         rx="1.38778e-16"
         y="6"
         x="676"
         height="7"
         width="2"
         id="rect4350"
         style="opacity:1;fill:#d3dae3;fill-opacity:1;stroke:none;stroke-width:1;stroke-linecap:round;stroke-linejoin:miter;stroke-miterlimit:4;stroke-dasharray:none;stroke-dashoffset:0;stroke-opacity:1" />
    </g>
    <g
       id="g4396"
       style="fill:#d3dae3;fill-opacity:1">
      <rect
         ry="1.38778e-16"
         rx="1.38778e-16"
         y="4"
         x="578"
         height="10"
         width="10"
         id="rect4392"
         style="opacity:1;fill:#d3dae3;fill-opacity:1;stroke:none;stroke-width:0.69999999;stroke-linecap:round;stroke-linejoin:miter;stroke-miterlimit:4;stroke-dasharray:none;stroke-dashoffset:0;stroke-opacity:1" />
      <path
         sodipodi:nodetypes="ccccc"
         inkscape:connector-curvature="0"
         id="path4394"
         d="m 588,7 4,-2 0,8 -4,-2 z"
         style="fill:#d3dae3;fill-opacity:1;fill-rule:evenodd;stroke:none;stroke-width:1px;stroke-linecap:butt;stroke-linejoin:miter;stroke-opacity:1" />
    </g>
    <path
       inkscape:connector-curvature="0"
       style="opacity:1;fill:#d3dae3;fill-opacity:1;stroke:none;stroke-width:1;stroke-linecap:round;stroke-linejoin:miter;stroke-miterlimit:4;stroke-dasharray:none;stroke-dashoffset:0;stroke-opacity:1"
       d="m 746.98828,2.4003902 c -0.25562,0 -0.51116,0.0971 -0.70703,0.2929688 l -2.30469,2.3066406 -1.98828,0 c -0.554,0 -1,0.446 -1,1 l 0,7.9785164 c 0,0.554 0.446,1 1,1 l 10,0 c 0.554,0 1,-0.446 1,-1 l 0,-7.9785164 c 0,-0.554 -0.446,-1 -1,-1 l -1.98828,0 -2.30469,-2.3066406 C 747.49944,2.4974904 747.2439,2.4003902 746.98828,2.4003902 Z m 1.55078,3.5996094 a 2.4615383,2.4615385 0 0 1 0.97656,0.203125 c -0.0537,0.038021 -0.10569,0.080354 -0.15429,0.1289062 l -1.13672,1.1386719 c -0.40828,0.4083106 -0.4456,1.0270683 -0.084,1.3886719 0.3616,0.3616032 0.98037,0.3243263 1.38868,-0.083984 l 1.13867,-1.1367187 c 0.0479,-0.047958 0.0892,-0.099311 0.12695,-0.1523438 A 2.4615383,2.4615385 0 0 1 751,8.4609371 2.4615383,2.4615385 0 0 1 748.53906,10.923828 2.4615383,2.4615385 0 0 1 747.5293,10.703125 L 744.23047,14 743,14 l 0,-1.230469 3.29688,-3.2988283 a 2.4615383,2.4615385 0 0 1 -0.22071,-1.0097656 2.4615383,2.4615385 0 0 1 2.46289,-2.4609375 z"
       id="rect4744-3" />
    <path
       inkscape:connector-curvature="0"
       style="opacity:1;fill:#000000;fill-opacity:1;stroke:none;stroke-width:0.69999999;stroke-linecap:round;stroke-linejoin:miter;stroke-miterlimit:4;stroke-dasharray:none;stroke-dashoffset:0;stroke-opacity:1"
       d="m 693,1.9999996 a 7,7 0 0 0 -7,7 A 7,7 0 0 0 693,16 a 7,7 0 0 0 7,-7.0000004 7,7 0 0 0 -7,-7 z m 0,0.671875 0,2.328125 a 4,4 0 0 1 4,4 A 4,4 0 0 1 693,13 4,4 0 0 1 689.13086,9.9999996 l 1.04492,0 A 3,3 0 0 0 693,12 a 3,3 0 0 0 3,-3.0000004 3,3 0 0 0 -3,-3 l 0,2.328125 -1.75586,-1.7558594 -0.71289,-0.7128906 -0.36133,-0.359375 L 693,2.6718746 Z"
       id="path4408" />
    <path
       inkscape:connector-curvature="0"
       style="opacity:1;fill:#da4453;fill-opacity:1;stroke:none;stroke-width:0.69999999;stroke-linecap:round;stroke-linejoin:miter;stroke-miterlimit:4;stroke-dasharray:none;stroke-dashoffset:0;stroke-opacity:1"
       d="m 693,20 a 7,7 0 0 0 -7,7 7,7 0 0 0 7,7 7,7 0 0 0 7,-7 7,7 0 0 0 -7,-7 z m 0,0.671875 L 693,23 a 4,4 0 0 1 4,4 4,4 0 0 1 -4,4 4,4 0 0 1 -3.86914,-3 l 1.04492,0 A 3,3 0 0 0 693,30 a 3,3 0 0 0 3,-3 3,3 0 0 0 -3,-3 l 0,2.328125 -1.75586,-1.755859 -0.71289,-0.712891 L 690.16992,23.5 693,20.671875 Z"
       id="path4408-6" />
    <g
       id="g4497"
       style="fill:#d3dae3;fill-opacity:1">
      <path
         sodipodi:nodetypes="cccccccccccccccccccccsssssss"
         inkscape:connector-curvature="0"
         id="path4490"
         d="m 709.6,3 -1.6,2 -0.3,2 -2.7,3 0,5 1,0 2,-2 1,0 1,1 1,0 1,0 1,-1 1,0 2,2 1,0 0,-5 L 714.3,7 714,5 712.4,3 711,2 Z m 0.9,3 1,0 c 0.277,0 0.5,0.223 0.5,0.5 0,0.277 -0.223,0.5 -0.5,0.5 l -1,0 C 710.223,7 710,6.777 710,6.5 710,6.223 710.223,6 710.5,6 Z"
         style="fill:#d3dae3;fill-opacity:1;fill-rule:evenodd;stroke:none;stroke-width:1px;stroke-linecap:butt;stroke-linejoin:miter;stroke-opacity:1" />
      <rect
         ry="0.5"
         rx="0.5"
         y="14.5"
         x="710"
         height="1"
         width="2"
         id="rect4492"
         style="opacity:1;fill:#d3dae3;fill-opacity:1;stroke:none;stroke-width:0.69999999;stroke-linecap:round;stroke-linejoin:miter;stroke-miterlimit:4;stroke-dasharray:none;stroke-dashoffset:0;stroke-opacity:1" />
    </g>
    <g
       id="g4265"
       style="fill:#000000;stroke:none;stroke-opacity:1;fill-opacity:1">
      <rect
         ry="1"
         rx="1"
         y="6"
         x="200.00009"
         height="10"
         width="10"
         id="rect4979"
         style="opacity:1;fill:#000000;fill-opacity:1;stroke:none;stroke-width:0.69999999;stroke-linecap:round;stroke-linejoin:miter;stroke-miterlimit:4;stroke-dasharray:none;stroke-dashoffset:0;stroke-opacity:1" />
      <ellipse
         ry="1.625"
         rx="2.0000014"
         cy="3.625"
         cx="205.00009"
         id="path4981"
         style="opacity:1;fill:#000000;fill-opacity:1;stroke:none;stroke-width:0.69999999;stroke-linecap:round;stroke-linejoin:miter;stroke-miterlimit:4;stroke-dasharray:none;stroke-dashoffset:0;stroke-opacity:1" />
      <rect
         ry="1"
         rx="1"
         y="4"
         x="204.00009"
         height="3.6273403"
         width="2"
         id="rect4983"
         style="opacity:1;fill:#000000;fill-opacity:1;stroke:none;stroke-width:0.69999999;stroke-linecap:round;stroke-linejoin:miter;stroke-miterlimit:4;stroke-dasharray:none;stroke-dashoffset:0;stroke-opacity:1" />
      <g
         style="fill:#000000;fill-opacity:1;stroke:none;stroke-opacity:1"
         transform="matrix(0,1,-1.0333195,0,213.64476,-194)"
         id="g5003">
        <ellipse
           style="opacity:1;fill:#000000;fill-opacity:1;stroke:none;stroke-width:0.69999999;stroke-linecap:round;stroke-linejoin:miter;stroke-miterlimit:4;stroke-dasharray:none;stroke-dashoffset:0;stroke-opacity:1"
           id="path4981-3"
           cx="205"
           cy="1.1550797"
           rx="2.0000014"
           ry="1.5" />
        <rect
           style="opacity:1;fill:#000000;fill-opacity:1;stroke:none;stroke-width:0.69999999;stroke-linecap:round;stroke-linejoin:miter;stroke-miterlimit:4;stroke-dasharray:none;stroke-dashoffset:0;stroke-opacity:1"
           id="rect4983-7"
           width="2"
           height="3.6273403"
           x="204"
           y="1.6550797"
           rx="0.9677549"
           ry="1" />
      </g>
    </g>
    <g
       id="g5070"
       style="fill:#d3dae3;fill-opacity:1">
      <circle
         r="7"
         cy="9"
         cx="9"
         id="path5059"
         style="opacity:1;fill:#d3dae3;fill-opacity:1;stroke:none;stroke-width:0.69999999;stroke-linecap:round;stroke-linejoin:miter;stroke-miterlimit:4;stroke-dasharray:none;stroke-dashoffset:0;stroke-opacity:1" />
      <path
         inkscape:connector-curvature="0"
         id="rect5061"
         d="m 5,5 0,8 8,0 0,-8 -8,0 z m 1,1 6,0 0,6 -6,0 0,-6 z"
         style="opacity:1;fill:#ffffff;fill-opacity:1;stroke:none;stroke-width:0.69999999;stroke-linecap:round;stroke-linejoin:miter;stroke-miterlimit:4;stroke-dasharray:none;stroke-dashoffset:0;stroke-opacity:1" />
      <path
         inkscape:connector-curvature="0"
         id="path5066"
         d="m 6,6 6,6"
         style="fill:#d3dae3;fill-opacity:1;fill-rule:evenodd;stroke:#ffffff;stroke-width:1px;stroke-linecap:butt;stroke-linejoin:miter;stroke-opacity:1" />
      <path
         inkscape:connector-curvature="0"
         id="path5068"
         d="M 12,6 6,12"
         style="fill:#d3dae3;fill-opacity:1;fill-rule:evenodd;stroke:#ffffff;stroke-width:1px;stroke-linecap:butt;stroke-linejoin:miter;stroke-opacity:1" />
    </g>
    <path
       style="display:inline;opacity:1;fill:#d3dae3;fill-opacity:1;stroke:none;stroke-width:1;stroke-linecap:butt;stroke-linejoin:round;stroke-miterlimit:4;stroke-dasharray:none;stroke-dashoffset:0;stroke-opacity:1"
       d="m 794,2 0,13 12,0 0,-13 z m 1,1 10,0 0,11 -10,0 z"
       id="rect4404"
       inkscape:connector-curvature="0"
       sodipodi:nodetypes="cccccccccc" />
    <path
       inkscape:connector-curvature="0"
       style="display:inline;opacity:1;fill:#d3dae3;fill-opacity:1;stroke:none;stroke-width:1;stroke-linecap:butt;stroke-linejoin:round;stroke-miterlimit:4;stroke-dasharray:none;stroke-dashoffset:0;stroke-opacity:1"
       d="m 796,4 0,4 8,0 0,-4 -8,0 z m 3,2 2,0 0,1 -2,0 0,-1 z"
       id="rect4409" />
    <path
       inkscape:connector-curvature="0"
       style="display:inline;opacity:1;fill:#d3dae3;fill-opacity:1;stroke:none;stroke-width:1;stroke-linecap:butt;stroke-linejoin:round;stroke-miterlimit:4;stroke-dasharray:none;stroke-dashoffset:0;stroke-opacity:1"
       d="m 796,9 0,4 8,0 0,-4 -8,0 z m 3,2 2,0 0,1 -2,0 0,-1 z"
       id="rect4411" />
    <path
       inkscape:connector-curvature="0"
       style="fill:currentColor;fill-opacity:1;stroke:none"
       d="m 470,3.75 0,1.75 14,0 0,-1.75 -14,0 m 0,4.375 0,1.75 14,0 0,-1.75 -14,0 m 0,4.375 0,1.75 14,0 0,-1.75 -14,0"
       class="ColorScheme-Text"
       id="path6-3" />
    <path
       inkscape:connector-curvature="0"
       style="fill:#f2f2f2;fill-opacity:0;stroke:none"
       d="m 469,4 0,2 16,0 0,-2 -16,0 m 0,5 0,2 16,0 0,-2 -16,0 m 0,5 0,2 16,0 0,-2 -16,0"
       class="ColorScheme-Text"
       id="path6-6" />
    <path
       inkscape:connector-curvature="0"
       style="fill:currentColor;fill-opacity:1;stroke:none"
       d="m 171,2 c -3.878,0 -7,3.1220017 -7,7 0,3.877998 3.122,7 7,7 3.878,0 7,-3.122002 7,-7 0,-3.8779983 -3.122,-7 -7,-7 m 0,0.875 c 3.39325,0 6.125,2.7317509 6.125,6.125 0,3.393249 -2.73175,6.125 -6.125,6.125 -3.39325,0 -6.125,-2.731751 -6.125,-6.125 0,-3.3932491 2.73175,-6.125 6.125,-6.125 m -0.875,0.875 0,6.125 0.875,0 4.375,0 0,-0.875 -4.375,0 0,-5.25 -0.875,0"
       class="ColorScheme-Text"
       id="path6-7" />
    <path
       inkscape:connector-curvature="0"
       style="fill:currentColor;fill-opacity:1;stroke:none"
       d="m 218.00009,2 0,0.875 0,13.125 0.875,0 13.125,0 0,-0.875 0,-11.375 -6.11817,0 -1.75,-1.75 -0.007,0.00683 0,-0.00683 -5.25,0 -0.875,0 m 5.25683,4.375 7.86817,0 0,8.75 -12.25,0 0,-7 2.625,0 0,-0.00683 0.007,0.00683 1.75,-1.75"
       class="ColorScheme-Text"
       id="path6-5" />
    <path
       inkscape:connector-curvature="0"
       style="fill:currentColor;fill-opacity:1;stroke:none"
       d="m 399.75,2 0,0.875 0,3.5 -1.75,0 0,0.875 0,6.125 0.875,0 2.625,0 0,1.75 0,0.875 7,0 0,-0.875 0,-1.75 3.5,0 0,-0.875 0,-5.25 0,-0.875 -1.75,0 0,-3.5 0,-0.875 -10.5,0 m 0.875,0.875 8.75,0 0,3.5 -0.875,0 0,-0.875 -7,0 0,0.875 -0.875,0 0,-3.5 m 0.875,0.875 0,0.875 7,0 0,-0.875 -7,0 m -2.625,3.5 12.25,0 0,5.25 -1.75,0 0,-1.75 -8.75,0 0,1.75 -1.75,0 0,-5.25 m 8.75,0.875 0,0.875 2.625,0 0,-0.875 -2.625,0 m -5.25,5.25 5.25,0 0,1.75 -5.25,0 0,-1.75"
       class="ColorScheme-Text"
       id="path6-35" />
    <path
       inkscape:connector-curvature="0"
       style="fill:currentColor;fill-opacity:1;stroke:none"
       d="M 135,2 132.83634,6.60913 128,7.347412 131.5,10.934578 130.67464,16 135,13.609138 139.32536,16 138.5,10.934578 142,7.347412 137.16366,6.60913 135,2 Z m 0,1.75 1.6219,3.455567 3.6281,0.555419 -2.625,2.689937 L 138.24538,14.25 135,12.455559 131.75462,14.25 132.375,10.450923 129.75,7.760986 133.3781,7.205567 135,3.75 Z"
       class="ColorScheme-Text"
       id="path6-62" />
    <path
       inkscape:connector-curvature="0"
       style="fill:currentColor;fill-opacity:1;stroke:none"
       d="m 506.875,2 0,0.875 0,11.375 0.875,0 1.75,0 0.875,0 0,0.875 0,0.875 5.25,0 3.5,-3.5 0,-0.875 0,-6.125 0,-0.875 -1.75,0 0,-2.625 -0.875,0 -8.75,0 -0.875,0 m 0.875,0.875 8.75,0 0,1.75 -6.125,0 0,0.875 0,7.875 -0.875,0 -1.75,0 0,-10.5 m 3.5,2.625 7,0 0,6.125 -2.625,0 -0.875,0 0,0.875 0,2.625 -3.5,0 0,-9.625"
       class="ColorScheme-Text"
       id="path6-9" />
    <path
       inkscape:connector-curvature="0"
       style="fill:currentColor;fill-opacity:1;stroke:none"
       d="m 186.375,2 0,5.25 0.875,0 0,-4.375 3.5,0 0,4.375 0.875,0 0,-5.25 -0.875,0 -3.5,0 -0.875,0 z M 184.44385,8.125 183.75,8.8393553 189,14.25 194.25,8.8393553 193.55615,8.125 189,12.82129 184.44385,8.125 Z m -1.56885,6.125 0,1.75 0.875,0 10.5,0 0.875,0 0,-1.75 -0.875,0 0,0.875 -10.5,0 0,-0.875 -0.875,0 z"
       class="ColorScheme-Text"
       id="path6-1" />
    <path
       inkscape:connector-curvature="0"
       style="fill:currentColor;fill-opacity:1;stroke:none"
       d="M 385.25,2 C 382.3415,2 380,4.3414958 380,7.25 c 0,2.908504 2.3415,5.25 5.25,5.25 1.29605,0 2.47676,-0.467847 3.39062,-1.240723 L 393.38135,16 394,15.381348 389.25928,10.640625 C 390.03215,9.726761 390.5,8.5460544 390.5,7.25 390.5,4.3414958 388.1585,2 385.25,2 Z m 0,0.875 c 2.42376,0 4.375,1.9512458 4.375,4.375 0,2.423754 -1.95124,4.375 -4.375,4.375 -2.42375,0 -4.375,-1.951246 -4.375,-4.375 0,-2.4237542 1.95125,-4.375 4.375,-4.375 z"
       class="ColorScheme-Text"
       id="path6-2" />
    <path
       inkscape:connector-curvature="0"
       style="fill:currentColor;fill-opacity:1;stroke:none"
       d="m 272,2 0,1.75 A 12.249998,12.249998 0 0 1 284.25,16 L 286,16 A 13.999998,13.999998 0 0 0 272,2 m 0,3.5000001 0,1.75 A 8.75,8.75 0 0 1 280.75,16 l 1.75,0 A 10.5,10.5 0 0 0 272,5.5000001 m 0,3.5 L 272,10.75 A 5.25,5.2499886 0 0 1 277.25,16 L 279,16 A 7,6.9999851 0 0 0 272,9.0000001 M 273.3125,13.375 A 1.3125,1.3125 0 0 0 272,14.6875 1.3125,1.3125 0 0 0 273.3125,16 1.3125,1.3125 0 0 0 274.625,14.6875 1.3125,1.3125 0 0 0 273.3125,13.375"
       class="ColorScheme-Text"
       id="path6-18" />
    <path
       inkscape:connector-curvature="0"
       style="fill:currentColor;fill-opacity:1;stroke:none"
       d="m 491.51022,2 c -0.50518,0.8749999 -0.76836,0.8749999 -0.26318,1.7499998 l 3.09839,5.3730462 -1.80127,3.086426 c -0.3896,-0.360022 -0.90694,-0.584473 -1.48169,-0.584473 -1.21188,0 -2.1875,0.975625 -2.1875,2.1875 0,1.211874 0.97562,2.187499 2.1875,2.187499 1.21187,0 2.1875,-0.975625 2.1875,-2.187499 0,-0.146216 -0.0157,-0.289208 -0.0427,-0.427246 l 1.01685,-1.761961 c 0.68286,-8.75e-4 0.76895,-0.677778 1.16724,-0.687012 l 1.40307,2.433594 c -0.029,0.142657 -0.0444,0.291142 -0.0444,0.442626 0,1.211875 0.97562,2.1875 2.1875,2.1875 1.21187,0 2.1875,-0.975625 2.1875,-2.1875 0,-1.211875 -0.97563,-2.187499 -2.1875,-2.187499 -0.57167,0 -1.08594,0.222762 -1.47485,0.579345 l -1.79785,-3.081298 3.09838,-5.3730465 c 0.50518,-0.8749999 0.242,-0.8749999 -0.26318,-1.7499998 L 495.00516,7.9917 491.51028,2.0000017 m 3.48975,6.9999993 c 0.24237,0 0.4375,0.195125 0.4375,0.4375 0,0.242375 -0.19513,0.4375 -0.4375,0.4375 -0.24238,0 -0.4375,-0.195125 -0.4375,-0.4375 0,-0.242375 0.19512,-0.4375 0.4375,-0.4375 z M 491.06253,12.5 c 0.72712,0 1.3125,0.585375 1.3125,1.3125 0,0.727125 -0.58538,1.3125 -1.3125,1.3125 -0.72713,0 -1.3125,-0.585375 -1.3125,-1.3125 0,-0.727125 0.58537,-1.3125 1.3125,-1.3125 m 7.875,0 c 0.72712,0 1.3125,0.585375 1.3125,1.3125 0,0.727125 -0.58538,1.3125 -1.3125,1.3125 -0.72713,0 -1.3125,-0.585375 -1.3125,-1.3125 0,-0.727125 0.58537,-1.3125 1.3125,-1.3125"
       class="ColorScheme-Text"
       id="path6-79" />
    <path
       inkscape:connector-curvature="0"
       style="fill:currentColor;fill-opacity:1;stroke:none"
       d="m 527.5,2 0,1.75 -1.75,0 -0.875,0 0,12.25 0.875,0 11.375,0 0,-0.875 0,-11.375 -0.875,0 -1.75,0 0,-1.75 -7,0 z m -1.75,2.625 0.875,0 0,1.75 8.75,0 0,-1.75 0.875,0 0,10.5 -10.5,0 0,-10.5 z m 1.75,2.625 0,0.875 7,0 0,-0.875 -7,0 z m 0,2.625 0,0.875 5.25,0 0,-0.875 -5.25,0 z m 0,2.625 0,0.875 2.625,0 0,-0.875 -2.625,0 z"
       class="ColorScheme-Text"
       id="path6-20" />
    <path
       inkscape:connector-curvature="0"
       style="fill:currentColor;fill-opacity:1;stroke:none"
       d="M 153,2.0000001 150.83301,6.607422 146,7.3457032 149.5,10.934571 148.67285,16 153,13.607422 157.32715,16 156.5,10.934571 160,7.3457032 155.16699,6.607422 153,2.0000001 Z"
       class="ColorScheme-Text"
       id="path6-75" />
    <path
       inkscape:connector-curvature="0"
       style="fill:currentColor;fill-opacity:1;stroke:none"
       d="M 117,2 116.38137,2.618653 110,9 l 0.61863,0.618652 0.25637,-0.256349 0,6.637697 0.875,0 4.375,0 2.625,0 4.375,0 0,-0.875 0,-5.762697 0.25637,0.256349 L 124,9 l -2.625,-2.625 0,-2.625 -2.625,0 L 117.61863,2.618653 117,2 m 0,1.237305 5.25,5.249999 0,6.637696 -3.5,0 0,-4.375 -2.625,0 -0.875,0 0,4.375 -3.5,0 0,-6.637696 5.25,-5.249999"
       class="ColorScheme-Text"
       id="path6-92" />
    <path
       inkscape:connector-curvature="0"
       style="fill:currentColor;fill-opacity:1;stroke:none"
       d="m 261,2 a 6.9999983,7.0000009 0 0 0 -6.7727,5.25 l 0.90576,0 A 6.125,6.125 0 0 1 261,2.875 a 6.125,6.125 0 0 1 5.52002,3.5 l -3.1582,0 0,0.875 3.50171,0 0.87329,0 0,-0.099121 0,-0.7758789 0,-3.5 -0.875,0 0,2.3242187 A 6.9999983,7.0000009 0 0 0 261,2 Z m -6.73682,8.75 0,0.09912 0,0.775879 0,3.5 0.875,0 0,-2.324219 A 6.9999983,7.0000009 0 0 0 261,16 a 6.9999983,7.0000009 0 0 0 6.7727,-5.25 l -0.90575,0 A 6.125,6.125 0 0 1 261,15.125 a 6.125,6.125 0 0 1 -5.52001,-3.5 l 3.15819,0 0,-0.875 -3.5,0 -0.002,0 -0.87329,0 z"
       class="ColorScheme-Text"
       id="path6-12" />
    <path
       inkscape:connector-curvature="0"
       style="fill:currentColor;fill-opacity:1;stroke:none"
       d="m 650.00001,3.7270856 0,0.6176463 0,8.6470491 0,0.255744 0,0.361902 0.7,0 13.29998,0 0,-0.361902 0,-0.255744 0,-0.617647 0,-8.6470484 -0.0342,0 -0.66584,0 -12.27596,0 -0.32402,0 -0.7,0 z m 0.7,0.6176463 0.0342,0 4.18223,3.6914019 -4.2164,3.7203542 0,-7.4117561 z m 1.02402,0 10.55194,0 L 657,9 651.72403,4.3447319 Z m 11.54178,0 0.0342,0 0,7.4117561 -4.21639,-3.7203542 4.18222,-3.6914019 z M 655.41133,8.472829 657,9.8733913 l 1.58867,-1.4005623 4.3873,3.871147 0.32402,0.285902 0,0.361903 -12.59998,0 0,-0.361903 0.32402,-0.285902 4.3873,-3.871147 z"
       class="ColorScheme-Text"
       id="path6-93" />
    <path
       inkscape:connector-curvature="0"
       style="fill:currentColor;fill-opacity:1;stroke:none"
       d="m 632.375,2.875 0,6.125 8.75,0 0,-6.125 -8.75,0 z m 9.625,0 0,6.125 4.375,0 0,-6.125 -4.375,0 z m -8.75,0.875 7,0 0,4.375 -7,0 0,-4.375 z m -0.875,6.125 0,6.125 14,0 0,-6.125 -14,0 z m 0.875,0.875 12.25,0 0,4.375 -12.25,0 0,-4.375 z"
       class="ColorScheme-Text"
       id="path6-4" />
    <path
       inkscape:connector-curvature="0"
       style="fill:currentColor;fill-opacity:1;stroke:none"
       d="m 423,2 -1.75,3.5 3.5,0 L 423,2 Z M 419.5,7.25 416,9 l 3.5,1.75 0,-3.5 z m 7,0 0,3.5 L 430,9 426.5,7.25 Z M 423,8.125 c -0.48475,0 -0.875,0.39025 -0.875,0.875 0,0.48475 0.39025,0.875 0.875,0.875 0.48475,0 0.875,-0.39025 0.875,-0.875 0,-0.48475 -0.39025,-0.875 -0.875,-0.875 z m -1.75,4.375 1.75,3.5 1.75,-3.5 -3.5,0 z"
       class="ColorScheme-Text"
       id="path6-0" />
    <path
       inkscape:connector-curvature="0"
       style="display:inline;fill:#da4453;fill-opacity:1;stroke:none"
       d="m 186.375,20 0,5.25 0.875,0 0,-4.375 3.5,0 0,4.375 0.875,0 0,-5.25 -0.875,0 -3.5,0 -0.875,0 z M 184.44385,26.125 183.75,26.839355 189,32.25 194.25,26.839355 193.55615,26.125 189,30.821289 184.44385,26.125 Z m -1.56885,6.125 0,1.75 0.875,0 10.5,0 0.875,0 0,-1.75 -0.875,0 0,0.875 -10.5,0 0,-0.875 -0.875,0 z"
       class="ColorScheme-Text"
       id="path6-1-3" />
    <path
       inkscape:connector-curvature="0"
       style="fill:currentColor;fill-opacity:1;stroke:none"
       d="m 616.625,2 0,0.875 0,12.25 0,0.875 4.375,-1.75 4.375,1.75 0,-0.875 0,-12.25 0,-0.875 -8.75,0 m 0.875,0.875 7,0 0,11.899658 L 621,13.375 617.5,14.774658 617.5,2.875"
       class="ColorScheme-Text"
       id="path6-367" />
    <path
       inkscape:connector-curvature="0"
       style="fill:currentColor;fill-opacity:1;stroke:none"
       d="m 460.10693,1.75 c -1.06213,0 -1.94164,0.748937 -2.14307,1.75 l -5.29443,0 0,0.875 5.29443,0 c 0.20143,1.0010631 1.08094,1.75 2.14307,1.75 1.06213,0 1.94164,-0.7489369 2.14307,-1.75 l 4.41943,0 0,-0.875 -4.41943,0 c -0.20143,-1.001063 -1.08094,-1.75 -2.14307,-1.75 z m -5.25,9.625 c -1.21188,0 -2.1875,0.975625 -2.1875,2.1875 0,1.211875 0.97562,2.1875 2.1875,2.1875 1.06213,0 1.94164,-0.748937 2.14307,-1.75 l 9.66943,0 0,-0.875 -9.66943,0 c -0.20143,-1.001063 -1.08094,-1.75 -2.14307,-1.75 z m 0,0.875 c 0.72712,0 1.3125,0.585375 1.3125,1.3125 0,0.727125 -0.58538,1.3125 -1.3125,1.3125 -0.72713,0 -1.3125,-0.585375 -1.3125,-1.3125 0,-0.727125 0.58537,-1.3125 1.3125,-1.3125 z"
       class="ColorScheme-Text"
       id="path6-53" />
    <path
       inkscape:connector-curvature="0"
       style="fill:currentColor;fill-opacity:1;stroke:none"
       d="m 236.00017,1.9992301 0,0.00171 0,0.8749896 0,13.1248443 0.87499,0 13.12484,0 0,-0.87499 0,-9.6248854 0,-0.6118092 -0.007,0 0.007,-0.00855 -2.88131,-2.8813134 -0.007,0.00855 0,-0.00855 -0.61181,0 -10.49988,0 z m 0.87499,0.8766986 2.62496,0 0,3.4999584 0,0.8749896 6.99992,0 0,-0.8749896 0,-3.4999584 0.25635,0 2.36862,2.3686241 0,0.2563447 0,9.6248855 -1.74998,0 0,-6.1249271 -0.87499,0 -6.99992,0 -0.87498,0 0,6.1249271 -1.74998,0 0,-12.2498543 z m 3.49995,0 3.41281,0 0,3.4999584 -3.41281,0 0,-3.4999584 z m -0.87499,6.9999168 6.99992,0 0,5.2499375 -6.99992,0 0,-5.2499375 z"
       class="ColorScheme-Text"
       id="path6" />
    <path
       inkscape:connector-curvature="0"
       style="fill:currentColor;fill-opacity:1;stroke:none"
       d="m 301.375,2 a 1.7500087,1.75 0 0 0 -1.75,1.75 1.7500087,1.75 0 0 0 1.75,1.75 1.7500087,1.75 0 0 0 1.75,-1.75 1.7500087,1.75 0 0 0 -1.75,-1.75 m -3.9375,3.5 A 0.4375,0.4375 0 0 0 297,5.9375 0.4375,0.4375 0 0 0 297.4375,6.375 0.4375,0.4375 0 0 0 297.875,5.9375 0.4375,0.4375 0 0 0 297.4375,5.5 m -1.75,0.875 A 0.4375,0.43749213 0 0 0 295.25,6.8125 0.4375,0.43749213 0 0 0 295.6875,7.25 0.4375,0.43749213 0 0 0 296.125,6.8125 0.4375,0.43749213 0 0 0 295.6875,6.375 M 292.625,7.25 a 1.75,1.7500087 0 0 0 -1.75,1.75 1.75,1.7500087 0 0 0 1.75,1.75 1.75,1.7500087 0 0 0 1.75,-1.75 1.75,1.7500087 0 0 0 -1.75,-1.75 m 3.0625,3.5 a 0.43750788,0.4375 0 0 0 -0.4375,0.4375 0.43750788,0.4375 0 0 0 0.4375,0.4375 0.43750788,0.4375 0 0 0 0.4375,-0.4375 0.43750788,0.4375 0 0 0 -0.4375,-0.4375 m 1.75,0.875 A 0.4375,0.4375 0 0 0 297,12.0625 0.4375,0.4375 0 0 0 297.4375,12.5 0.4375,0.4375 0 0 0 297.875,12.0625 0.4375,0.4375 0 0 0 297.4375,11.625 m 3.9375,0.875 a 1.7500087,1.75 0 0 0 -1.75,1.75 1.7500087,1.75 0 0 0 1.75,1.75 1.7500087,1.75 0 0 0 1.75,-1.75 1.7500087,1.75 0 0 0 -1.75,-1.75"
       class="ColorScheme-Text"
       id="path6-3675" />
    <g
       transform="matrix(0.875,0,0,0.875,89.375,-0.625)"
       style="fill:#da4453"
       id="g4">
      <path
         inkscape:connector-curvature="0"
         d="M 7.837891,7.130859 A 5,5 0 0 0 7.130859,7.837891 L 10.292969,11 7.130859,14.162109 a 5,5 0 0 0 0.707032,0.707032 L 11,11.707031 l 3.162109,3.16211 a 5,5 0 0 0 0.707032,-0.707032 L 11.707031,11 14.869141,7.837891 A 5,5 0 0 0 14.162109,7.130859 L 11,10.292969 7.837891,7.130859"
         id="path6-36753" />
      <path
         inkscape:connector-curvature="0"
         d="m 11,3 a 8,7.99997 0 0 0 -8,8 8,7.99997 0 0 0 8,8 8,7.99997 0 0 0 8,-8 8,7.99997 0 0 0 -8,-8 m 0,1 a 7,6.999974 0 0 1 7,7 7,6.999974 0 0 1 -7,7 7,6.999974 0 0 1 -7,-7 7,6.999974 0 0 1 7,-7"
         id="path8" />
    </g>
    <path
       inkscape:connector-curvature="0"
       style="fill:currentColor;fill-opacity:1;stroke:none"
       d="m 81,2 c -1.2615,0 -2.440629,0.3350567 -3.460694,0.9143067 l 0.645997,0.645996 c 0,0 0.0018,-0.00171 0.0018,-0.00171 L 80.61894,5.9887696 81.237592,5.3701172 79.065473,3.1997071 C 79.674099,2.996115 80.320923,2.875 81,2.875 c 3.393224,0 6.125,2.73175 6.125,6.125 0,1.017188 -0.250099,1.97216 -0.685303,2.814697 l 0.645996,0.645996 C 87.664988,11.440618 88,10.261488 88,9 88,5.122 84.87797,2 81,2 Z M 74.914306,5.5393067 C 74.335011,6.559382 74,7.738512 74,9 c 0,3.878 3.12203,7 7,7 1.2615,0 2.440628,-0.335057 3.460693,-0.914307 l -0.598145,-0.598144 0.0018,-0.0018 -2.47461,-2.47461 -0.618652,0.618653 2.168702,2.168701 C 82.32956,15.003265 81.680981,15.125 81,15.125 c -3.393224,0 -6.125,-2.73175 -6.125,-6.125 0,-1.017187 0.2501,-1.97216 0.685303,-2.814697 L 74.914306,5.5393067 Z"
       class="ColorScheme-Text"
       id="path6-56" />
    <path
       inkscape:connector-curvature="0"
       style="fill:currentColor;fill-opacity:1;stroke:none"
       d="m 344,2 0,0.875 0,12.25 0,0.875 8.75,0 0,-0.875 -7.875,0 0,-12.25 3.5,0 0,2.625 7,0 1.75,0 0,5.25 0.875,0 0,-6.125 -0.875,0 -1.75,0 0,-2.625 -7,0 -3.5,0 L 344,2 Z m 11.375,9.625 0,1.75 -1.75,0 0,0.875 1.75,0 0,1.75 0.875,0 0,-1.75 1.75,0 0,-0.875 -1.75,0 0,-1.75 -0.875,0 z"
       class="ColorScheme-Text"
       id="path6-29" />
    <path
       inkscape:connector-curvature="0"
       style="fill:currentColor;fill-opacity:1;stroke:none"
       d="M 765,12.5 759,6.249 759.719,5.5 763.844,9.798 765,11.035 766.156,9.798 770.281,5.5 771,6.249 766.875,10.547 Z"
       class="ColorScheme-Text"
       id="path6-367535" />
    <path
       inkscape:connector-curvature="0"
       style="fill:#da4453;fill-opacity:1;stroke:none"
       d="m 765,30.465 -6,-6.251 0.719,-0.749 4.125,4.298 L 765,29 l 1.156,-1.237 4.125,-4.298 0.719,0.749 -4.125,4.298 z"
       class="ColorScheme-Text"
       id="path6-629" />
    <path
       inkscape:connector-curvature="0"
       style="display:inline;fill:currentColor;fill-opacity:1;stroke:none"
       d="m 605.39413,5.0212169 -0.3516,0.3516403 3.04626,3.0462575 0.58082,0.5808852 -0.58082,0.5808841 -3.04626,3.046263 0.3516,0.351637 3.0462,-3.0462582 0.93259,-0.9325259 -0.93259,-0.932529 -3.0462,-3.046254"
       class="ColorScheme-Text"
       id="path6-36-3" />
    <path
       inkscape:connector-curvature="0"
       style="display:inline;fill:currentColor;fill-opacity:1;stroke:none"
       d="m 599.72458,5.021217 -0.35166,0.3516403 3.04622,3.0462576 L 603,9 l -0.58086,0.5808845 -3.04622,3.0462625 0.35166,0.351637 3.04625,-3.0462572 L 603.70331,9 602.77083,8.0674715 599.72458,5.021217"
       class="ColorScheme-Text"
       id="path6-36-3-6" />
    <g
       transform="matrix(0.875,0,0,0.875,20.125,-468.19193)"
       id="g4147"
       style="fill:#000000;fill-opacity:1">
      <path
         d="m 329,537.3622 0,4 0,11 0,1 10,0 6,0 0,-1 0,-5 0,-6 0,-4 -16,0 z m 1,4 14,0 0,6 0,5 -5,0 -9,0 0,-11 z"
         id="rect4138"
         style="fill:#000000;fill-opacity:1"
         inkscape:connector-curvature="0" />
      <path
         style="fill:#000000;fill-opacity:1"
         id="path6-753"
         d="m 337.46549,548.52128 -1.42714,-1.41027 0.0168,-0.0168 c 0.97764,-1.09001 1.67435,-2.34296 2.0845,-3.66895 l 1.64626,0 0,-1.12373 -3.93303,0 0,-1.12373 -1.12372,0 0,1.12373 -3.93303,0 0,1.11811 6.27599,0 c -0.37645,1.0844 -0.97202,2.11259 -1.7811,3.01157 -0.52254,-0.57872 -0.95516,-1.21362 -1.2979,-1.88223 l -1.12373,0 c 0.41016,0.91584 0.97203,1.78111 1.67436,2.56208 l -2.85989,2.82055 0.79786,0.79783 2.8093,-2.8093 1.74739,1.74738 0.42701,-1.14618 z m 3.16327,-2.84864 -1.12373,0 -2.52837,6.74234 1.12373,0 0.62929,-1.68559 2.66883,0 0.6349,1.68559 1.12372,0 -2.52837,-6.74234 z m -1.47208,3.93302 0.91021,-2.43284 0.91022,2.43284 -1.82043,0 z"
         inkscape:connector-curvature="0" />
    </g>
    <path
       inkscape:connector-curvature="0"
       style="fill:currentColor;fill-opacity:1;stroke:none"
       d="m 326,2 0,3.5 0,9.625 0,0.875 8.75,0 0,-0.875 -7.875,0 0,-9.625 12.25,0 0,5.25 0.875,0 0,-5.25 0,-3.5 -14,0 m 11.375,9.625 0,1.75 -1.75,0 0,0.875 1.75,0 0,1.75 0.875,0 0,-1.75 1.75,0 0,-0.875 -1.75,0 0,-1.75 -0.875,0"
       class="ColorScheme-Text"
       id="path6-562" />
    <path
       style="color:#4d4d4d;fill:#000000;fill-opacity:1;stroke:none"
       d="m 439,1.961667 c -1.73243,0 -2.45971,0.5724 -2.45971,2.037597 l 0,1.986816 c 0,0.904982 -0.0335,1.951905 -0.99018,1.951905 l -0.49518,0 0,1.0473609 0.49518,0 c 0.95689,0 0.99018,1.0469301 0.99018,1.9519091 l 0,1.986806 c 0,1.46521 0.72728,2.037606 2.45971,2.037606 L 439,14 c -1.15496,0 -1.17114,-0.388639 -1.17114,-1.796399 l 0,-1.637679 c 0,-0.675136 -0.20092,-1.68134 -1.17436,-2.097908 0.97344,-0.416568 1.17436,-1.419587 1.17436,-2.094725 l 0,-1.653565 c 0,-1.4077554 0.016,-1.7963866 1.17114,-1.7963866 z m 2.55493,0 c -0.9002,0 -1.625,0.72475 -1.625,1.625 0,0.90025 0.7248,1.625 1.625,1.625 0.9002,0 1.625,-0.72475 1.625,-1.625 0,-0.90025 -0.7248,-1.625 -1.625,-1.625 z m 2.54225,0 0,0.9616704 c 1.15493,0 1.18375,0.3886312 1.18375,1.7963866 l 0,1.653565 c 0,0.675138 0.20091,1.678157 1.17442,2.094725 -0.97351,0.416568 -1.17442,1.422772 -1.17442,2.097908 l 0,1.637679 c 0,1.40776 -0.0286,1.796399 -1.18375,1.796399 l 0,0.961667 c 1.73234,0 2.47233,-0.572396 2.47238,-2.037606 l 0,-1.986806 c 0,-0.90498 0.0654,-1.9519091 1.0061,-1.9519091 l 0.47927,0 0,-1.0473609 -0.47927,0 c -0.9404,0 -1.00615,-1.046925 -1.0061,-1.951905 l 0,-1.986816 c 0,-1.465197 -0.74004,-2.037597 -2.47238,-2.037597 z m -4.16725,4.875 0,6.5 3.25,0 0,-6.5 z"
       class="ColorScheme-Text"
       id="path6-91"
       inkscape:connector-curvature="0"
       sodipodi:nodetypes="csssccsssccsscssccsssssccsscsscccssccscscccccc" />
    <path
       inkscape:connector-curvature="0"
       style="fill:currentColor;fill-opacity:1;stroke:none"
       d="m 729.10256,2.0007252 a 7.0010652,7.0001741 0 0 0 -5.05253,2.05083 7.0010652,7.0001741 0 0 0 0,9.8986718 7.0010652,7.0001741 0 0 0 9.89994,0 7.0010652,7.0001741 0 0 0 0,-9.8986718 7.0010652,7.0001741 0 0 0 -4.84741,-2.05083 z m -0.19143,0.875021 a 6.1259298,6.1251451 0 0 1 4.09534,1.500524 l -1.22894,1.228789 a 7.0006143,4.3753839 44.991624 0 0 -4.74657,-2.399471 6.1259298,6.1251451 0 0 1 1.88017,-0.329842 z m -2.64934,1.143338 a 6.1255375,3.5003071 44.992771 0 1 4.89528,2.206351 L 729,8.3822242 725.01747,4.4001972 a 6.1255375,3.5003071 44.992771 0 1 1.24432,-0.381113 z m 7.36856,0.970726 a 6.1259298,6.1251451 0 0 1 1.16912,5.9593688 7.0006143,4.3753839 44.991624 0 0 -2.40662,-4.7220348 l 1.2375,-1.237334 z m -9.23334,0.02735 3.98425,3.983736 -2.15878,2.1584988 a 6.1255375,3.5003071 44.992771 0 1 -1.82547,-6.1422348 z m 7.38052,1.825238 a 6.1255375,3.5003071 44.992771 0 1 1.82547,6.1422348 l -3.98425,-3.9837368 2.15878,-2.158498 z m -8.57699,0.21021 a 7.0006143,4.3753839 44.991624 0 0 2.40662,4.7220358 l -1.2375,1.237333 A 6.1259298,6.1251451 0 0 1 723.20054,7.0526082 Z M 729,9.6195632 l 3.98254,3.9820278 a 6.1255375,3.5003071 44.992771 0 1 -6.1396,-1.825238 L 729,9.6195632 Z m -2.77752,2.7771648 a 7.0006143,4.3753839 44.991624 0 0 4.74657,2.399472 6.1259298,6.1251451 0 0 1 -5.97552,-1.170683 l 1.22895,-1.228789 z"
       class="ColorScheme-Text"
       id="path6-27" />
    <path
       inkscape:connector-curvature="0"
       style="color:#4d4d4d;fill:#000000;fill-opacity:1;stroke:none"
       d="m 369,1.124995 c -1.94175,-5e-6 -3.51586,1.566996 -3.51588,3.5 2e-5,1.933004 1.57413,3.500004 3.51588,3.5 1.94176,4e-6 3.51587,-1.566996 3.51588,-3.5 -10e-6,-1.933004 -1.57412,-3.500005 -3.51588,-3.5 z m 0,0.875 c 1.45632,0 2.6369,1.175248 2.63691,2.625 -10e-6,1.449752 -1.18059,2.625 -2.63691,2.625 -1.45631,0 -2.63689,-1.175248 -2.63691,-2.625 2e-5,-1.449752 1.1806,-2.625 2.63691,-2.625 z m 0,7 c -3.54048,0.0042 -6.52567,2.628126 -6.96824,6.125 l 0.88583,0 c 0.43655,-3.010802 3.02663,-5.246419 6.08241,-5.25 0.2943,0.0024 0.58804,0.02581 0.87897,0.07007 l 0,-0.883545 C 369.58756,9.02274 369.294,9.00219 369,9 Z m 3.95536,0 c -1.69904,0 -3.07639,1.371128 -3.07639,3.0625 0,1.691372 1.37735,3.0625 3.07639,3.0625 1.69905,0 3.0764,-1.371128 3.0764,-3.0625 0,-1.691372 -1.37735,-3.0625 -3.0764,-3.0625 z m 0.0378,1.21167 0.002,0 c 0.35695,0 0.63639,0.08985 0.8412,0.270019 0.20478,0.178297 0.3073,0.429495 0.3073,0.751953 0,0.140365 -0.0173,0.264436 -0.0549,0.37256 -0.0375,0.108122 -0.0964,0.210879 -0.17339,0.307616 -0.0752,0.09674 -0.22589,0.240795 -0.45322,0.432374 -0.18599,0.161229 -0.31055,0.295388 -0.37253,0.401611 -0.0601,0.104324 -0.0893,0.242678 -0.0893,0.415283 l 0.002,0.0068 -0.45837,0 c 0.0229,-0.423394 0.28592,-0.829595 0.53734,-1.057861 0.20477,-0.174506 0.33957,-0.298397 0.40343,-0.374269 0.0639,-0.07587 0.10931,-0.153132 0.13563,-0.229003 0.0263,-0.07587 0.0395,-0.164365 0.0395,-0.264893 0,-0.187783 -0.06,-0.331845 -0.18026,-0.432373 -0.12023,-0.100526 -0.29301,-0.15039 -0.51846,-0.15039 -0.15028,0 -0.29825,0.02017 -0.44291,0.05811 -0.14278,0.03793 -0.30393,0.09902 -0.48241,0.186278 l -0.17682,-0.406737 c 0.35695,-0.191581 0.7346,-0.28711 1.13476,-0.28711 z m -0.44979,3.185547 0.45838,0 0,0.45459 -0.45838,0 0,-0.45459 z"
       id="path6-09" />
    <path
       inkscape:connector-curvature="0"
       style="fill:currentColor;fill-opacity:1;stroke:none"
       d="M 23.5,9 29.751,3 30.5,3.719 26.202,7.844 24.965,9 26.202,10.156 30.5,14.281 29.751,15 25.453,10.875 Z"
       class="ColorScheme-Text"
       id="path6-3675356" />
    <path
       inkscape:connector-curvature="0"
       style="fill:currentColor;fill-opacity:1;stroke:none"
       d="M 41.5,9 47.751,3 48.5,3.719 44.202,7.844 42.965,9 44.202,10.156 48.5,14.281 47.751,15 43.453,10.875 Z"
       class="ColorScheme-Text"
       id="path6-291" />
    <path
       inkscape:connector-curvature="0"
       style="fill:currentColor;fill-opacity:1;stroke:none"
       d="M 66.5,9 60.249,15 59.5,14.281 63.798,10.156 65.035,9 63.798,7.844 59.5,3.719 60.249,3 64.547,7.125 Z"
       class="ColorScheme-Text"
       id="path6-270" />
    <path
       inkscape:connector-curvature="0"
       style="fill:currentColor;fill-opacity:1;stroke:none"
       d="m 566.36364,2 0,6.3550506 -6.36364,0 0,1.2700167 6.36364,0 0,6.3749327 1.27272,0 0,-6.3749327 6.36364,0 0,-1.2700167 -6.36364,0 0,-6.3550506 -1.27272,0 z"
       class="ColorScheme-Text"
       id="path6-936" />
    <path
       inkscape:connector-curvature="0"
       style="fill:currentColor;fill-opacity:1;stroke:none"
       d="m 544,8.35 0,1.3 10,0 0,-1.3 -10,0 z"
       class="ColorScheme-Text"
       id="path6-06" />
    <path
       inkscape:connector-curvature="0"
       style="display:inline;fill:currentColor;fill-opacity:1;stroke:none"
       d="m 776,2 0,0.875 0,12.25 0,0.875 8.75,0 0,-0.875 -7.875,0 0,-12.25 3.5,0 0,2.625 7,0 1.75,0 0,5.25 0.875,0 0,-6.125 -0.875,0 -1.75,0 0,-2.625 -7,0 -3.5,0 L 776,2 Z m 11.375,9.625 0,1.75 -1.75,0 0,0.875 1.75,0 0,1.75 0.875,0 0,-1.75 1.75,0 0,-0.875 -1.75,0 0,-1.75 -0.875,0 z"
       class="ColorScheme-Text"
       id="path6-29-2" />
  </g>
</svg>
