<?xml version="1.0" encoding="UTF-8" standalone="no"?>
<svg
   xmlns:dc="http://purl.org/dc/elements/1.1/"
   xmlns:cc="http://creativecommons.org/ns#"
   xmlns:rdf="http://www.w3.org/1999/02/22-rdf-syntax-ns#"
   xmlns:svg="http://www.w3.org/2000/svg"
   xmlns="http://www.w3.org/2000/svg"
   xmlns:sodipodi="http://sodipodi.sourceforge.net/DTD/sodipodi-0.dtd"
   xmlns:inkscape="http://www.inkscape.org/namespaces/inkscape"
   viewBox="0 0 22 22"
   id="svg2"
   version="1.1"
   inkscape:version="0.91 r13725"
   sodipodi:docname="tab-close-hover.svg">
  <metadata
     id="metadata14">
    <rdf:RDF>
      <cc:Work
         rdf:about="">
        <dc:format>image/svg+xml</dc:format>
        <dc:type
           rdf:resource="http://purl.org/dc/dcmitype/StillImage" />
        <dc:title></dc:title>
      </cc:Work>
    </rdf:RDF>
  </metadata>
  <defs
     id="defs12" />
  <sodipodi:namedview
     pagecolor="#ffffff"
     bordercolor="#666666"
     borderopacity="1"
     objecttolerance="10"
     gridtolerance="10"
     guidetolerance="10"
     inkscape:pageopacity="0"
     inkscape:pageshadow="2"
     inkscape:window-width="1280"
     inkscape:window-height="724"
     id="namedview10"
     showgrid="false"
     inkscape:zoom="21.538352"
     inkscape:cx="11"
     inkscape:cy="11"
     inkscape:window-x="0"
     inkscape:window-y="28"
     inkscape:window-maximized="1"
     inkscape:current-layer="svg2" />
  <g
     transform="matrix(1.375,0,0,1.375,-583.9652,-727.10422)"
     id="g4">
    <circle
       cx="432.71429"
       cy="536.79071"
       r="6"
       style="fill:#ffffff"
       id="circle6" />
    <path
       d="m 432.71429,528.79074 a 8,8.00001 0 0 0 -8,8 8,8.00001 0 0 0 8,8 8,8.00001 0 0 0 8,-8 8,8.00001 0 0 0 -8,-8 m -3.29297,4 3.29297,3.29297 3.29297,-3.29297 0.70703,0.70703 -3.29297,3.29297 3.29297,3.29297 -0.70703,0.70703 -3.29297,-3.29297 -3.29297,3.29297 -0.70703,-0.70703 3.29297,-3.29297 -3.29297,-3.29297 0.70703,-0.70703"
       style="fill:#da4453"
       id="path8"
       inkscape:connector-curvature="0" />
  </g>
</svg>
