<?xml version="1.0" encoding="UTF-8" standalone="no"?>
<svg
   xmlns:dc="http://purl.org/dc/elements/1.1/"
   xmlns:cc="http://creativecommons.org/ns#"
   xmlns:rdf="http://www.w3.org/1999/02/22-rdf-syntax-ns#"
   xmlns:svg="http://www.w3.org/2000/svg"
   xmlns="http://www.w3.org/2000/svg"
   xmlns:sodipodi="http://sodipodi.sourceforge.net/DTD/sodipodi-0.dtd"
   xmlns:inkscape="http://www.inkscape.org/namespaces/inkscape"
   viewBox="0 0 22 22"
   id="svg2"
   version="1.1"
   inkscape:version="0.91 r13725"
   sodipodi:docname="tracking-protection-16.svg">
  <metadata
     id="metadata13">
    <rdf:RDF>
      <cc:Work
         rdf:about="">
        <dc:format>image/svg+xml</dc:format>
        <dc:type
           rdf:resource="http://purl.org/dc/dcmitype/StillImage" />
      </cc:Work>
    </rdf:RDF>
  </metadata>
  <sodipodi:namedview
     pagecolor="#ffffff"
     bordercolor="#666666"
     borderopacity="1"
     objecttolerance="10"
     gridtolerance="10"
     guidetolerance="10"
     inkscape:pageopacity="0"
     inkscape:pageshadow="2"
     inkscape:window-width="1280"
     inkscape:window-height="724"
     id="namedview11"
     showgrid="false"
     inkscape:zoom="21.538352"
     inkscape:cx="11"
     inkscape:cy="10.985491"
     inkscape:window-x="0"
     inkscape:window-y="28"
     inkscape:window-maximized="1"
     inkscape:current-layer="svg2" />
  <defs
     id="defs3051">
    <style
       type="text/css"
       id="current-color-scheme">
      .ColorScheme-Text {
        color:#f2f2f2;
      }
      .ColorScheme-PositiveText {
        color:#27ae60;
      }
      </style>
  </defs>
  <g
     transform="matrix(1.375,0,0,1.375,-4.1428724,-1420.9014)"
     id="g6">
    <path
       style="color:#f2f2f2;opacity:1;fill:currentColor;fill-opacity:1;stroke:none"
       d="M 11,3 C 11,3 9,5.6575188 3,6.3242188 3,6.3242188 3,15.6581 11,19 19,15.6581 19,6.3242188 19,6.3242188 13,5.6575188 11,3 11,3 Z m 0,1.3769531 c 1.586995,1.3447 3.87716,2.2417594 6.845703,2.6933594 -0.161259,1.4452 -0.315875,2.5327844 -0.689453,3.5839845 -0.78509,2.2091 -1.700475,3.553031 -2.521484,4.519531 C 13.362538,16.671528 12.207192,17.277659 11,17.880859 9.792808,17.277659 8.6374614,16.671528 7.3652344,15.173828 6.5442254,14.207328 5.62884,12.863397 4.84375,10.654297 4.470172,9.6030969 4.3155559,8.5155125 4.1542969,7.0703125 7.1228399,6.6187125 9.413005,5.7216531 11,4.3769531 Z"
       transform="translate(0,1030.3622)"
       class="ColorScheme-Text"
       id="path4943-7"
       inkscape:connector-curvature="0" />
    <path
       style="color:#27ae60;fill:currentColor;fill-opacity:1;stroke:none"
       class="ColorScheme-PositiveText"
       d="m 15,1041.3622 c 2.216,0 4,1.784 4,4 0,2.216 -1.784,4 -4,4 -2.216,0 -4,-1.784 -4,-4 0,-2.216 1.784,-4 4,-4 z"
       id="rect4153"
       inkscape:connector-curvature="0" />
    <path
       style="fill:#ffffff"
       d="m 17,13 -3,3 -1,-1 -1,1 1,1 1,1 4,-4 -1,-1 z"
       transform="translate(0,1030.3622)"
       id="path4142"
       inkscape:connector-curvature="0" />
  </g>
</svg>
