<?xml version="1.0" encoding="UTF-8" standalone="no"?>
<svg
   xmlns:dc="http://purl.org/dc/elements/1.1/"
   xmlns:cc="http://creativecommons.org/ns#"
   xmlns:rdf="http://www.w3.org/1999/02/22-rdf-syntax-ns#"
   xmlns:svg="http://www.w3.org/2000/svg"
   xmlns="http://www.w3.org/2000/svg"
   xmlns:sodipodi="http://sodipodi.sourceforge.net/DTD/sodipodi-0.dtd"
   xmlns:inkscape="http://www.inkscape.org/namespaces/inkscape"
   viewBox="0 0 192 32"
   id="svg2"
   version="1.1"
   inkscape:version="0.91 r13725"
   sodipodi:docname="edit-cut.svg"
   width="192"
   height="32"
   inkscape:export-filename="/home/jacobtey/Загрузки/rsm-firefox-theme-master/rsm-firefox-theme/chrome/browser/menuPanel-small@2x.png"
   inkscape:export-xdpi="90"
   inkscape:export-ydpi="90">
  <metadata
     id="metadata10">
    <rdf:RDF>
      <cc:Work
         rdf:about="">
        <dc:format>image/svg+xml</dc:format>
        <dc:type
           rdf:resource="http://purl.org/dc/dcmitype/StillImage" />
        <dc:title></dc:title>
      </cc:Work>
    </rdf:RDF>
  </metadata>
  <sodipodi:namedview
     pagecolor="#ffffff"
     bordercolor="#666666"
     borderopacity="1"
     objecttolerance="10"
     gridtolerance="10"
     guidetolerance="10"
     inkscape:pageopacity="0"
     inkscape:pageshadow="2"
     inkscape:window-width="1280"
     inkscape:window-height="726"
     id="namedview8"
     showgrid="false"
     inkscape:zoom="2.6685685"
     inkscape:cx="91.884314"
     inkscape:cy="-33.999639"
     inkscape:window-x="0"
     inkscape:window-y="26"
     inkscape:window-maximized="1"
     inkscape:current-layer="svg2" />
  <defs
     id="defs3051">
    <style
       type="text/css"
       id="current-color-scheme">
      .ColorScheme-Text {
        color:#4d4d4d;
      }
      </style>
  </defs>
  <path
     style="color:#4d4d4d;fill:#ffffff;fill-opacity:1;stroke:none"
     d="M 40.500974,1 C 39.418263,2.8749998 38.871283,2.8749998 39.953993,4.7500001 L 46.517773,16 42.767041,21.546875 C 42.086909,21.201874 41.313634,21 40.500974,21 37.737936,21 35.5,23.2375 35.5,26 c 0,2.7625 2.237936,5 5.000974,5 2.763039,0 5.000975,-2.2375 5.000975,-5 0,-1.0125 -0.341942,-1.946875 -0.859543,-2.734375 -0.0125,-0.02001 0.0125,-0.06062 0,-0.07813 l 1.093963,-1.5625 c 2.005392,-0.0625 2.286072,-1.481875 3.516311,-1.484375 0.02751,0 0.05064,-0.0025 0.07815,0 l 0.07814,0.15625 1.953506,2.890625 0,0.07813 C 50.847375,24.053125 50.49805,24.9875 50.49805,26 c 2e-6,2.7625 2.237937,5 5.000976,5 C 58.262065,31 60.5,28.7625 60.5,26 c 0,-2.7625 -2.237935,-5 -5.000974,-5 -0.812659,0 -1.583551,0.201874 -2.261183,0.546875 L 49.487102,16 c 0,0 6.588784,-11.27 6.563779,-11.2499999 C 57.133592,2.8749998 56.581727,2.8749998 55.499017,1 L 47.997554,13.8125 40.500976,1 Z m 7.496578,15 0.0049,0 c 0.690133,0 1.250244,0.56 1.250244,1.25 0,0.635 -0.481344,1.169999 -1.093965,1.25 l -0.312559,0 c -0.61262,-0.08 -1.098848,-0.615 -1.098848,-1.25 0,-0.69 0.560109,-1.25 1.250243,-1.25 z m -7.501461,7.5 c 1.380269,0 2.500488,1.119999 2.500488,2.5 0,1.38 -1.120219,2.5 -2.500488,2.5 -1.380269,0 -2.500488,-1.12 -2.500488,-2.5 0,-1.380001 1.120219,-2.5 2.500488,-2.5 z m 15.002924,0 c 1.380268,0 2.500487,1.119999 2.500487,2.5 0,1.38 -1.120219,2.5 -2.500487,2.5 -1.38027,0 -2.500489,-1.12 -2.500489,-2.5 0,-1.380001 1.120219,-2.5 2.500489,-2.5 z"
     class="ColorScheme-Text"
     id="path6"
     inkscape:connector-curvature="0" />
  <path
     inkscape:connector-curvature="0"
     style="color:#4d4d4d;fill:#ffffff;fill-opacity:1;stroke:none"
     d="M 66.5,1.0000005 66.5,28.5 l 7.363636,0 0,2.5 12.272728,0 7.363636,-7.5 0,-17.5000002 -2.454545,0 0,-4.9999993 -22.618254,0 -1.927201,0 z m 2.454545,2.4999997 19.636363,0 0,2.4999996 -14.727272,0 0,20.0000002 -4.909091,0 0,-22.4999998 z m 7.363636,5.0000004 14.727274,0 0,12.4999994 -7.363636,0 0,7.5 -7.363638,0 0,-19.9999994 z"
     class="ColorScheme-Text"
     id="path6-3" />
  <path
     inkscape:connector-curvature="0"
     style="color:#4d4d4d;fill:#ffffff;fill-opacity:1;stroke:none"
     d="m 131,14.5 0,3 26,0 0,-3 -26,0 z"
     class="ColorScheme-Text"
     id="path6-6" />
  <path
     inkscape:connector-curvature="0"
     style="color:#4d4d4d;fill:#ffffff;fill-opacity:1;stroke:none"
     d="m 104.5,0.9999998 0,2.5000001 -5,0 L 99.5,31 l 10,0 2.5,0 10,0 2.5,0 0,-2.5 0,-10.000001 0,-14.9999991 -5,0 0,-2.5000001 -15,0 z m -2.5,4.999999 2.5,0 0,2.5000001 15,0 0,-2.5000001 2.5,0 0,5.0000002 L 122,26 l 0,2.5 -10,0 -2.5,0 -7.5,0 0,-2.5 0,-15.000001 0,-5.0000002 z m 2.5,7.5000002 0,2.5 12.5,0 0,-2.5 -12.5,0 z m 0,7.500001 0,2.5 7.5,0 0,-2.5 -7.5,0 z"
     class="ColorScheme-Text"
     id="path6-7" />
  <path
     inkscape:connector-curvature="0"
     style="color:#4d4d4d;fill:#ffffff;fill-opacity:1;stroke:none"
     d="m 174.81818,3 0,11.802236 -11.81818,0 0,2.358601 11.81818,0 0,11.839163 2.36364,0 0,-11.839163 11.81818,0 0,-2.358601 -11.81818,0 0,-11.802236 -2.36364,0 z"
     class="ColorScheme-Text"
     id="path6-5" />
</svg>
