<?xml version="1.0" encoding="UTF-8" standalone="no"?>
<svg
   xmlns:dc="http://purl.org/dc/elements/1.1/"
   xmlns:cc="http://creativecommons.org/ns#"
   xmlns:rdf="http://www.w3.org/1999/02/22-rdf-syntax-ns#"
   xmlns:svg="http://www.w3.org/2000/svg"
   xmlns="http://www.w3.org/2000/svg"
   xmlns:sodipodi="http://sodipodi.sourceforge.net/DTD/sodipodi-0.dtd"
   xmlns:inkscape="http://www.inkscape.org/namespaces/inkscape"
   viewBox="0 0 84 84"
   id="svg2"
   version="1.1"
   inkscape:version="0.91 r13725"
   sodipodi:docname="gtk-convert.svg"
   width="84"
   height="84"
   inkscape:export-filename="/home/jacobtey/reload-stop-go@2x.png"
   inkscape:export-xdpi="90"
   inkscape:export-ydpi="90">
  <metadata
     id="metadata10">
    <rdf:RDF>
      <cc:Work
         rdf:about="">
        <dc:format>image/svg+xml</dc:format>
        <dc:type
           rdf:resource="http://purl.org/dc/dcmitype/StillImage" />
        <dc:title />
      </cc:Work>
    </rdf:RDF>
  </metadata>
  <sodipodi:namedview
     pagecolor="#ffffff"
     bordercolor="#666666"
     borderopacity="1"
     objecttolerance="10"
     gridtolerance="10"
     guidetolerance="10"
     inkscape:pageopacity="0"
     inkscape:pageshadow="2"
     inkscape:window-width="1280"
     inkscape:window-height="724"
     id="namedview8"
     showgrid="true"
     inkscape:zoom="3.8223517"
     inkscape:cx="5.5148843"
     inkscape:cy="28.707267"
     inkscape:window-x="0"
     inkscape:window-y="28"
     inkscape:window-maximized="1"
     inkscape:current-layer="svg2">
    <inkscape:grid
       type="xygrid"
       id="grid4243"
       empspacing="14" />
  </sodipodi:namedview>
  <defs
     id="defs3051">
    <style
       type="text/css"
       id="current-color-scheme">
      .ColorScheme-Text {
        color:#f2f2f2
      }
      </style>
  </defs>
  <path
     inkscape:connector-curvature="0"
     style="color:#f2f2f2;fill:currentColor;fill-opacity:1;stroke:none"
     d="m 13.815813,2.9535232 c -2.032831,0 -3.9234625,0.5854437 -5.5572911,1.5468749 l 1.03125,1.03125 0.34375,0.34375 3.5520831,3.5520834 1.317708,-1.3177083 -2.979166,-2.9791667 c 0.358123,-0.093665 0.714747,-0.1791534 1.088541,-0.2291667 0.09608,-0.0143 0.189345,-0.046163 0.286459,-0.057292 0.308156,-0.031295 0.600253,-0.057292 0.916666,-0.057292 5.062611,0 9.166667,4.104056 9.166667,9.1666662 0,0.445544 -0.05216,0.890098 -0.114583,1.317709 -0.03658,0.24979 -0.05828,0.501972 -0.114584,0.744791 -0.122742,0.525399 -0.305519,1.003978 -0.515625,1.489584 -0.02433,0.05623 -0.03186,0.116233 -0.05729,0.171875 -0.07509,0.168043 -0.198467,0.299444 -0.286458,0.458333 -0.0083,0.01467 0.0079,0.04226 0,0.05729 l 1.375,1.317708 c 0.961431,-1.633828 1.546875,-3.524458 1.546875,-5.557291 0,-6.0751334 -4.92487,-11.0000002 -11,-11.0000002 z M 4.3626885,8.3962315 c -0.9614312,1.6338275 -1.546875,3.5244585 -1.546875,5.5572915 0,6.075134 4.9248706,11.000001 10.9999995,11.000001 2.032832,0 3.923464,-0.585444 5.557292,-1.546875 l -1.03125,-1.03125 -0.34375,-0.34375 -3.552083,-3.494793 -1.260417,1.260418 2.921875,2.979167 c -0.358123,0.09366 -0.714747,0.179153 -1.088542,0.229166 -0.09609,0.0143 -0.189344,0.04616 -0.286458,0.05729 -0.308156,0.0313 -0.600253,0.05729 -0.916667,0.05729 -0.316413,0 -0.60851,-0.026 -0.916666,-0.05729 -0.308156,-0.0313 -0.618303,-0.05353 -0.916667,-0.114583 -4.1770939,-0.854755 -7.3333331,-4.565007 -7.3333331,-8.994791 0,-0.455149 0.050527,-0.880341 0.1145833,-1.317708 0.036575,-0.24979 0.058282,-0.501973 0.1145833,-0.744792 0.1227417,-0.5254 0.3055177,-1.003978 0.515625,-1.489584 0.023815,-0.05632 0.032377,-0.116141 0.057292,-0.171875 0.07447,-0.16291 0.199122,-0.3020155 0.2864583,-0.4583325 l 0,-0.057292 -1.375,-1.3177084 z"
     class="ColorScheme-Text"
     id="path6-36" />
  <path
     inkscape:connector-curvature="0"
     style="fill:#f2f2f2;fill-opacity:1;stroke:none"
     class="ColorScheme-NegativeText"
     d="m 42.070671,3.0843336 a 11,10.999945 0 0 0 -11,10.9999994 11,10.999945 0 0 0 11,11 11,10.999945 0 0 0 11,-11 11,10.999945 0 0 0 -11,-10.9999994 m 0,1.8333334 a 9.1666667,9.1666208 0 0 1 9.166667,9.166666 9.1666667,9.1666208 0 0 1 -9.166667,9.166667 9.1666667,9.1666208 0 0 1 -9.166667,-9.166667 9.1666667,9.1666208 0 0 1 9.166667,-9.166666 m -4.493815,3.3766271 a 7.3333333,7.3333333 0 0 0 -1.292643,1.299804 l 4.490291,4.4902349 -4.4935,4.4935 a 7.3333333,7.3333333 0 0 0 1.299432,1.292958 l 4.490235,-4.490291 4.4935,4.4935 a 7.3333333,7.3333333 0 0 0 1.292958,-1.299432 l -4.490291,-4.490235 4.4935,-4.4935001 A 7.3333333,7.3333333 0 0 0 46.560906,8.2978746 l -4.490235,4.4902914 z"
     id="path6-75" />
  <path
     inkscape:connector-curvature="0"
     style="color:#f2f2f2;fill:currentColor;fill-opacity:1;stroke:none"
     d="M 76.309729,14.215142 64.849562,3.2151424 l -1.373167,1.318166 7.879667,7.5625006 2.267833,2.119333 -2.267833,2.119333 -7.879667,7.5625 1.373167,1.318167 7.879667,-7.5625 z"
     class="ColorScheme-Text"
     id="path6-35" />
  <path
     inkscape:connector-curvature="0"
     style="fill:#da4453;fill-opacity:1;stroke:none"
     class="ColorScheme-NegativeText"
     d="m 42.120667,58.872572 a 11,10.999945 0 0 0 -11,10.999999 11,10.999945 0 0 0 11,11 11,10.999945 0 0 0 11,-11 11,10.999945 0 0 0 -11,-10.999999 m 0,1.833334 a 9.1666667,9.1666208 0 0 1 9.166667,9.166665 9.1666667,9.1666208 0 0 1 -9.166667,9.166667 9.1666667,9.1666208 0 0 1 -9.166667,-9.166667 9.1666667,9.1666208 0 0 1 9.166667,-9.166665 m -4.493815,3.376627 a 7.3333333,7.3333333 0 0 0 -1.292643,1.299804 l 4.490291,4.490234 -4.4935,4.4935 a 7.3333333,7.3333333 0 0 0 1.299432,1.292958 l 4.490235,-4.490291 4.4935,4.4935 a 7.3333333,7.3333333 0 0 0 1.292958,-1.299432 l -4.490291,-4.490235 4.4935,-4.493499 a 7.3333333,7.3333333 0 0 0 -1.299432,-1.292959 l -4.490235,4.490292 z"
     id="path6-75-6" />
  <path
     inkscape:connector-curvature="0"
     style="fill:#5a5e62;fill-opacity:1;stroke:none"
     class="ColorScheme-NegativeText"
     d="m 42.120667,30.879334 a 11,10.999945 0 0 0 -11,10.999999 11,10.999945 0 0 0 11,11 11,10.999945 0 0 0 11,-11 11,10.999945 0 0 0 -11,-10.999999 m 0,1.833334 A 9.1666667,9.1666208 0 0 1 51.287334,41.879333 9.1666667,9.1666208 0 0 1 42.120667,51.046 9.1666667,9.1666208 0 0 1 32.954,41.879333 9.1666667,9.1666208 0 0 1 42.120667,32.712668 m -4.493815,3.376627 a 7.3333333,7.3333333 0 0 0 -1.292643,1.299804 l 4.490291,4.490234 -4.4935,4.4935 a 7.3333333,7.3333333 0 0 0 1.299432,1.292958 l 4.490235,-4.490291 4.4935,4.4935 a 7.3333333,7.3333333 0 0 0 1.292958,-1.299432 l -4.490291,-4.490235 4.4935,-4.493499 a 7.3333333,7.3333333 0 0 0 -1.299432,-1.292959 l -4.490235,4.490292 z"
     id="path6-75-2" />
  <path
     inkscape:connector-curvature="0"
     style="color:#f2f2f2;fill:#5a5e62;fill-opacity:1;stroke:none"
     d="m 13.865809,30.879334 c -2.032832,0 -3.9234635,0.585444 -5.5572921,1.546875 l 1.03125,1.03125 0.34375,0.34375 3.5520841,3.552083 1.317708,-1.317708 -2.979167,-2.979167 c 0.358123,-0.09366 0.714747,-0.179153 1.088541,-0.229167 0.09608,-0.0143 0.189345,-0.04616 0.28646,-0.05729 0.308156,-0.0313 0.600253,-0.05729 0.916666,-0.05729 5.062611,0 9.166667,4.104056 9.166667,9.166666 0,0.445544 -0.05216,0.890098 -0.114583,1.317709 -0.03658,0.24979 -0.05828,0.501972 -0.114584,0.744791 -0.122742,0.525399 -0.30552,1.003978 -0.515625,1.489584 -0.02433,0.05623 -0.03186,0.116233 -0.05729,0.171875 -0.07509,0.168043 -0.198467,0.299444 -0.286458,0.458333 -0.0083,0.01467 0.0079,0.04226 0,0.05729 l 1.375,1.317708 c 0.961431,-1.633828 1.546875,-3.524458 1.546875,-5.557291 0,-6.075133 -4.924871,-11 -11,-11 z m -9.4531255,5.442708 c -0.9614312,1.633828 -1.546875,3.524459 -1.546875,5.557291 0,6.075134 4.9248706,11.000001 10.9999995,11.000001 2.032832,0 3.923464,-0.585444 5.557292,-1.546875 l -1.03125,-1.03125 -0.34375,-0.34375 -3.552083,-3.494793 -1.260417,1.260418 2.921875,2.979167 c -0.358123,0.09366 -0.714747,0.179153 -1.088542,0.229166 -0.09609,0.0143 -0.189344,0.04616 -0.286458,0.05729 -0.308156,0.0313 -0.600253,0.05729 -0.916667,0.05729 -0.316413,0 -0.60851,-0.026 -0.916666,-0.05729 -0.308156,-0.0313 -0.618303,-0.05353 -0.916667,-0.114583 -4.1770939,-0.854755 -7.3333331,-4.565007 -7.3333331,-8.994791 0,-0.455149 0.050527,-0.880341 0.1145833,-1.317707 0.036575,-0.24979 0.058282,-0.501973 0.1145833,-0.744792 0.1227417,-0.5254 0.3055177,-1.003978 0.515625,-1.489584 0.023815,-0.05632 0.032377,-0.116141 0.057292,-0.171875 0.07447,-0.16291 0.199122,-0.302016 0.2864583,-0.458333 l 0,-0.05729 -1.375,-1.317708 z"
     class="ColorScheme-Text"
     id="path6-36-9" />
  <path
     inkscape:connector-curvature="0"
     style="color:#f2f2f2;fill:#da4453;fill-opacity:1;stroke:none"
     d="m 13.865809,59.134192 c -2.032832,0 -3.9234635,0.585444 -5.5572921,1.546875 l 1.03125,1.03125 0.34375,0.34375 3.5520841,3.552083 1.317708,-1.317708 -2.979167,-2.979167 c 0.358123,-0.09366 0.714747,-0.179153 1.088541,-0.229167 0.09608,-0.0143 0.189345,-0.04616 0.28646,-0.05729 0.308156,-0.0313 0.600253,-0.05729 0.916666,-0.05729 5.062611,0 9.166667,4.104056 9.166667,9.166666 0,0.445544 -0.05216,0.890098 -0.114583,1.317709 -0.03658,0.24979 -0.05828,0.501972 -0.114584,0.744791 -0.122742,0.525399 -0.30552,1.003978 -0.515625,1.489584 -0.02433,0.05623 -0.03186,0.116233 -0.05729,0.171875 -0.07509,0.168043 -0.198467,0.299444 -0.286458,0.458333 -0.0083,0.01467 0.0079,0.04226 0,0.05729 l 1.375,1.317708 c 0.961431,-1.633828 1.546875,-3.524458 1.546875,-5.557291 0,-6.075133 -4.924871,-11 -11,-11 z M 4.4126835,64.5769 c -0.9614312,1.633828 -1.546875,3.524459 -1.546875,5.557291 0,6.075134 4.9248706,11.000001 10.9999995,11.000001 2.032832,0 3.923464,-0.585444 5.557292,-1.546875 l -1.03125,-1.03125 -0.34375,-0.34375 -3.552083,-3.494793 -1.260417,1.260418 2.921875,2.979167 c -0.358123,0.09366 -0.714747,0.179153 -1.088542,0.229166 -0.09609,0.0143 -0.189344,0.04616 -0.286458,0.05729 -0.308156,0.0313 -0.600253,0.05729 -0.916667,0.05729 -0.316413,0 -0.60851,-0.026 -0.916666,-0.05729 -0.308156,-0.0313 -0.618303,-0.05353 -0.916667,-0.114583 -4.1770939,-0.854755 -7.3333331,-4.565007 -7.3333331,-8.994791 0,-0.455149 0.050527,-0.880341 0.1145833,-1.317707 0.036575,-0.24979 0.058282,-0.501973 0.1145833,-0.744792 0.1227417,-0.5254 0.3055177,-1.003978 0.515625,-1.489584 0.023815,-0.05632 0.032377,-0.116141 0.057292,-0.171875 0.07447,-0.16291 0.199122,-0.302016 0.2864583,-0.458333 l 0,-0.05729 -1.375,-1.317708 z"
     class="ColorScheme-Text"
     id="path6-36-1" />
  <path
     inkscape:connector-curvature="0"
     style="color:#f2f2f2;fill:#da4453;fill-opacity:1;stroke:none"
     d="m 77.074694,69.819332 -11.460167,-11 -1.373167,1.318166 7.879667,7.562501 2.267833,2.119333 -2.267833,2.119333 -7.879667,7.5625 1.373167,1.318167 7.879667,-7.5625 z"
     class="ColorScheme-Text"
     id="path6-35-2" />
  <path
     inkscape:connector-curvature="0"
     style="color:#f2f2f2;fill:#5a5e62;fill-opacity:1;stroke:none"
     d="m 76.289837,42.087714 -11.460167,-11 -1.373167,1.318166 7.879667,7.562501 2.267833,2.119333 -2.267833,2.119333 -7.879667,7.5625 1.373167,1.318167 7.879667,-7.5625 z"
     class="ColorScheme-Text"
     id="path6-35-7" />
</svg>
