<?xml version="1.0" encoding="UTF-8" standalone="no"?>
<svg
   xmlns:dc="http://purl.org/dc/elements/1.1/"
   xmlns:cc="http://creativecommons.org/ns#"
   xmlns:rdf="http://www.w3.org/1999/02/22-rdf-syntax-ns#"
   xmlns:svg="http://www.w3.org/2000/svg"
   xmlns="http://www.w3.org/2000/svg"
   xmlns:sodipodi="http://sodipodi.sourceforge.net/DTD/sodipodi-0.dtd"
   xmlns:inkscape="http://www.inkscape.org/namespaces/inkscape"
   viewBox="0 0 128 32"
   id="svg2"
   version="1.1"
   inkscape:version="0.91 r13725"
   sodipodi:docname="know.svg"
   width="128"
   height="32"
   inkscape:export-filename="/home/jacobtey/Загрузки/rsm-firefox-theme-master/rsm-firefox-theme/chrome/browser/menuPanel-help@2x.png"
   inkscape:export-xdpi="90"
   inkscape:export-ydpi="90">
  <metadata
     id="metadata12">
    <rdf:RDF>
      <cc:Work
         rdf:about="">
        <dc:format>image/svg+xml</dc:format>
        <dc:type
           rdf:resource="http://purl.org/dc/dcmitype/StillImage" />
        <dc:title />
      </cc:Work>
    </rdf:RDF>
  </metadata>
  <sodipodi:namedview
     pagecolor="#ffffff"
     bordercolor="#666666"
     borderopacity="1"
     objecttolerance="10"
     gridtolerance="10"
     guidetolerance="10"
     inkscape:pageopacity="0"
     inkscape:pageshadow="2"
     inkscape:window-width="1280"
     inkscape:window-height="726"
     id="namedview10"
     showgrid="false"
     inkscape:zoom="7.9450563"
     inkscape:cx="120.77604"
     inkscape:cy="14.234289"
     inkscape:window-x="0"
     inkscape:window-y="26"
     inkscape:window-maximized="1"
     inkscape:current-layer="svg2" />
  <defs
     id="defs3051">
    <style
       type="text/css"
       id="current-color-scheme">
      .ColorScheme-Text {
        color:#4d4d4d;
      }
      .ColorScheme-Highlight {
        color:#3daee9;
      }
      </style>
  </defs>
  <path
     style="color:#4d4d4d;fill:#ffffff;fill-opacity:1;stroke:none"
     d="M 15.950007,3.4 C 13.148514,3.4 10.498992,4.0745632 8,5.4218744 L 9.2437496,8.2812569 C 10.493222,7.6676213 11.616073,7.2292835 12.615627,6.9625032 c 1.012749,-0.266772 2.044685,-0.4 3.096864,-0.4 1.578319,0 2.789481,0.3523914 3.631256,1.0593703 0.84176,0.7069901 1.262499,1.720008 1.262499,3.0406315 0,0.706986 -0.09091,1.328891 -0.274997,1.862491 -0.184121,0.533569 -0.499694,1.066417 -0.946877,1.6 -0.447161,0.533578 -1.388267,1.413369 -2.821868,2.640619 C 14.802383,18.370949 12.960734,21.2224 12.8,24.2 l 3.2,0 -0.0096,-0.04996 c 0,-1.213889 0.210352,-2.188193 0.631249,-2.921882 0.434048,-0.747027 1.301012,-1.688002 2.603125,-2.821877 1.591472,-1.347316 2.652043,-2.360287 3.178123,-3.040625 0.539265,-0.68032 0.940085,-1.399011 1.203125,-2.159375 C 23.869446,12.445885 24,11.571514 24,10.584371 24,8.3166333 23.283633,6.5539081 21.850007,5.3 20.416383,4.0327392 18.44897,3.4 15.950007,3.4 Z M 12.8,25.8 l 0,3.2 3.2,0 0,-3.2 -3.2,0 z"
     class="ColorScheme-Text"
     id="path6"
     inkscape:connector-curvature="0" />
  <path
     style="color:#4d4d4d;fill:#f27e2c;fill-opacity:1;stroke:none"
     d="m 47.950007,3.4000003 c -2.801493,0 -5.451015,0.6745629 -7.950007,2.0218742 l 1.243749,2.8593831 c 1.249472,-0.6136359 2.372324,-1.0519739 3.371878,-1.3187544 1.012749,-0.2667717 2.044685,-0.4 3.096864,-0.4 1.578319,0 2.789481,0.3523919 3.631256,1.0593703 0.84176,0.7069903 1.262499,1.7200079 1.262499,3.0406325 0,0.706985 -0.09091,1.32889 -0.274997,1.86249 -0.184121,0.533569 -0.499694,1.066417 -0.946877,1.6 -0.447161,0.533578 -1.388267,1.413369 -2.821868,2.640619 C 46.802383,18.370949 44.960734,21.2224 44.8,24.2 l 3.2,0 -0.0096,-0.04996 c 0,-1.213889 0.210352,-2.188193 0.631249,-2.921882 0.434048,-0.747027 1.301012,-1.688002 2.603125,-2.821877 1.591472,-1.347316 2.652043,-2.360287 3.178123,-3.040625 0.539265,-0.68032 0.940085,-1.399011 1.203125,-2.159375 0.263473,-0.760397 0.394027,-1.634768 0.394027,-2.621911 0,-2.2677371 -0.716367,-4.0304625 -2.149993,-5.2843702 -1.433624,-1.2672611 -3.401037,-1.9000005 -5.9,-1.9000005 z M 44.8,25.8 l 0,3.2 3.2,0 0,-3.2 -3.2,0 z"
     class="ColorScheme-Text"
     id="path6-3"
     inkscape:connector-curvature="0" />
  <path
     style="color:#4d4d4d;fill:#da4453;fill-opacity:1;stroke:none"
     d="m 79.950007,3.3999997 c -2.801493,0 -5.451016,0.6745633 -7.950007,2.0218744 l 1.243749,2.8593825 c 1.249472,-0.6136356 2.372324,-1.0519734 3.371878,-1.3187537 1.012749,-0.266772 2.044685,-0.4 3.096864,-0.4 1.578319,0 2.789481,0.3523914 3.631256,1.0593703 0.84176,0.7069901 1.262499,1.7200085 1.262499,3.0406318 0,0.706986 -0.09091,1.328891 -0.274997,1.862491 -0.184121,0.533569 -0.499694,1.066417 -0.946877,1.6 -0.447161,0.533578 -1.388267,1.413369 -2.821868,2.640619 C 78.802383,18.370949 76.960734,21.2224 76.8,24.2 l 3.2,0 -0.0096,-0.04996 c 0,-1.213889 0.210352,-2.188193 0.631249,-2.921882 0.434048,-0.747027 1.301012,-1.688002 2.603125,-2.821877 1.591472,-1.347316 2.652043,-2.360287 3.178123,-3.040625 0.539265,-0.68032 0.940085,-1.399011 1.203125,-2.159375 0.263473,-0.760397 0.394027,-1.634768 0.394027,-2.621911 0,-2.267738 -0.716367,-4.0304632 -2.149993,-5.2843713 -1.433624,-1.2672608 -3.401037,-1.9 -5.9,-1.9 z M 76.8,25.8 l 0,3.2 3.2,0 0,-3.2 -3.2,0 z"
     class="ColorScheme-Text"
     id="path6-6"
     inkscape:connector-curvature="0" />
  <path
     style="color:#4d4d4d;fill:#ffffff;fill-opacity:1;stroke:none"
     d="m 111.95011,3.3996847 c -2.80153,0 -5.45109,0.6745716 -7.95011,2.0218993 l 1.24376,2.8594177 c 1.24949,-0.6136431 2.37235,-1.0519863 3.37193,-1.3187699 1.01276,-0.2667753 2.0447,-0.400005 3.0969,-0.400005 1.57834,0 2.78951,0.3523958 3.63129,1.0593834 0.84178,0.7069988 1.26252,1.7200292 1.26252,3.0406688 0,0.706995 -0.0909,1.328908 -0.275,1.862514 -0.18412,0.533576 -0.4997,1.066431 -0.94689,1.60002 -0.44717,0.533584 -1.38829,1.413386 -2.8219,2.640652 -1.76014,1.605353 -3.60182,4.456839 -3.76255,7.434476 l 3.20004,0 -0.01,-0.04996 c 0,-1.213904 0.21036,-2.18822 0.63126,-2.921918 0.43405,-0.747036 1.30102,-1.688022 2.60315,-2.821912 1.5915,-1.347332 2.65208,-2.360315 3.17817,-3.040662 0.53927,-0.680329 0.9401,-1.399028 1.20314,-2.159402 0.26348,-0.760406 0.39403,-1.634787 0.39403,-2.621943 0,-2.2677655 -0.71638,-4.0305124 -2.15002,-5.2844359 -1.43364,-1.2672764 -3.40108,-1.9000234 -5.90007,-1.9000234 z m -3.15005,22.4002763 0,3.200039 3.20004,0 0,-3.200039 -3.20004,0 z"
     class="ColorScheme-Text"
     id="path6-7"
     inkscape:connector-curvature="0" />
</svg>
