<?xml version="1.0" encoding="UTF-8" standalone="no"?>
<svg
   xmlns:dc="http://purl.org/dc/elements/1.1/"
   xmlns:cc="http://creativecommons.org/ns#"
   xmlns:rdf="http://www.w3.org/1999/02/22-rdf-syntax-ns#"
   xmlns:svg="http://www.w3.org/2000/svg"
   xmlns="http://www.w3.org/2000/svg"
   xmlns:sodipodi="http://sodipodi.sourceforge.net/DTD/sodipodi-0.dtd"
   xmlns:inkscape="http://www.inkscape.org/namespaces/inkscape"
   viewBox="0 0 96 32"
   id="svg2"
   version="1.1"
   inkscape:version="0.91 r13725"
   sodipodi:docname="system-shutdown-symbolic.svg"
   width="96"
   height="32"
   inkscape:export-filename="/home/jacobtey/Загрузки/rsm-firefox-theme-master/rsm-firefox-theme/chrome/browser/menuPanel-exit@2x.png"
   inkscape:export-xdpi="90"
   inkscape:export-ydpi="90">
  <metadata
     id="metadata10">
    <rdf:RDF>
      <cc:Work
         rdf:about="">
        <dc:format>image/svg+xml</dc:format>
        <dc:type
           rdf:resource="http://purl.org/dc/dcmitype/StillImage" />
        <dc:title></dc:title>
      </cc:Work>
    </rdf:RDF>
  </metadata>
  <sodipodi:namedview
     pagecolor="#ffffff"
     bordercolor="#666666"
     borderopacity="1"
     objecttolerance="10"
     gridtolerance="10"
     guidetolerance="10"
     inkscape:pageopacity="0"
     inkscape:pageshadow="2"
     inkscape:window-width="1280"
     inkscape:window-height="726"
     id="namedview8"
     showgrid="false"
     inkscape:zoom="4.0982475"
     inkscape:cx="16.341657"
     inkscape:cy="22.627134"
     inkscape:window-x="0"
     inkscape:window-y="26"
     inkscape:window-maximized="1"
     inkscape:current-layer="svg2" />
  <defs
     id="defs3051">
    <style
       type="text/css"
       id="current-color-scheme">
      .ColorScheme-Text {
        color:#bebebe;
      }
      </style>
  </defs>
  <path
     style="color:#bebebe;fill:#ffffff;fill-opacity:1;stroke:none"
     d="m 14.432617,1 0,12.5 3.134766,0 0,-12.5 -3.134766,0 z M 18.5,1.2148425 18.5,3.753905 A 12.5,12.5 0 0 1 28.5,16 12.5,12.5 0 0 1 16,28.5 12.5,12.5 0 0 1 3.5,16 12.5,12.5 0 0 1 13.5,3.7636725 L 13.5,1.22461 A 15,15 0 0 0 1,16 15,15 0 0 0 16,31 15,15 0 0 0 31,16 15,15 0 0 0 18.5,1.2148425 Z"
     class="ColorScheme-Text"
     id="path6"
     inkscape:connector-curvature="0" />
  <path
     style="color:#bebebe;fill:#ffffff;fill-opacity:1;stroke:none"
     d="m 78.432617,1 0,12.5 3.134766,0 0,-12.5 -3.134766,0 z M 82.5,1.2148429 l 0,2.5390625 A 12.5,12.5 0 0 1 92.5,16 12.5,12.5 0 0 1 80,28.5 12.5,12.5 0 0 1 67.5,16 12.5,12.5 0 0 1 77.5,3.7636729 l 0,-2.5390625 A 15,15 0 0 0 65,16 15,15 0 0 0 80,31 15,15 0 0 0 95,16 15,15 0 0 0 82.5,1.2148429 Z"
     class="ColorScheme-Text"
     id="path6-3"
     inkscape:connector-curvature="0" />
  <path
     style="color:#bebebe;fill:#ffffff;fill-opacity:1;stroke:none"
     d="m 46.432618,1.0000005 0,12.4999995 3.134766,0 0,-12.4999995 -3.134766,0 z m 4.067383,0.2148425 0,2.5390624 a 12.5,12.5 0 0 1 10,12.2460946 12.5,12.5 0 0 1 -12.5,12.5 12.5,12.5 0 0 1 -12.5,-12.5 12.5,12.5 0 0 1 10,-12.2363271 l 0,-2.5390624 A 15,15 0 0 0 33,16 a 15,15 0 0 0 15.000001,15 15,15 0 0 0 15,-15 15,15 0 0 0 -12.5,-14.785157 z"
     class="ColorScheme-Text"
     id="path6-6"
     inkscape:connector-curvature="0" />
</svg>
